<svg xmlns="http://www.w3.org/2000/svg" viewBox="0 0 480 270"><path stroke="#000" stroke-width=".4799964" fill="none" d="M23.945 0 35.89 6.897V20.69l-11.945 6.896L12 20.69V6.897ZM47.945 0 59.89 6.897V20.69l-11.945 6.896L36 20.69V6.897Z"/><path stroke="#000" stroke-width=".4799964" fill="#00000080" d="M71.945 0 83.89 6.897V20.69l-11.945 6.896L60 20.69V6.897Z"/><path stroke="#000" stroke-width=".4799964" fill="#000000e3" d="m95.945 0 11.945 6.897V20.69l-11.945 6.896L84 20.69V6.897Z"/><path stroke="#000" stroke-width=".4799964" fill="none" d="m119.945 0 11.945 6.897V20.69l-11.945 6.896L108 20.69V6.897ZM143.945 0l11.945 6.897V20.69l-11.945 6.896L132 20.69V6.897ZM167.945 0l11.945 6.897V20.69l-11.945 6.896L156 20.69V6.897Z"/><path stroke="#000" stroke-width=".4799964" fill="#000000b4" d="m191.945 0 11.945 6.897V20.69l-11.945 6.896L180 20.69V6.897Z"/><path stroke="#000" stroke-width=".4799964" fill="none" d="m215.945 0 11.945 6.897V20.69l-11.945 6.896L204 20.69V6.897Z"/><path stroke="#000" stroke-width=".4799964" fill="#0000001a" d="m239.945 0 11.945 6.897V20.69l-11.945 6.896L228 20.69V6.897Z"/><path stroke="#000" stroke-width=".4799964" fill="none" d="m263.945 0 11.945 6.897V20.69l-11.945 6.896L252 20.69V6.897Z"/><path stroke="#000" stroke-width=".4799964" fill="#00000042" d="m287.945 0 11.945 6.897V20.69l-11.945 6.896L276 20.69V6.897Z"/><path stroke="#000" stroke-width=".4799964" fill="none" d="m311.945 0 11.945 6.897V20.69l-11.945 6.896L300 20.69V6.897ZM335.945 0l11.945 6.897V20.69l-11.945 6.896L324 20.69V6.897ZM359.945 0l11.945 6.897V20.69l-11.945 6.896L348 20.69V6.897ZM383.945 0l11.945 6.897V20.69l-11.945 6.896L372 20.69V6.897Z"/><path stroke="#000" stroke-width=".4799964" fill="#00000083" d="m407.945 0 11.945 6.897V20.69l-11.945 6.896L396 20.69V6.897Z"/><path stroke="#000" stroke-width=".4799964" fill="#00000032" d="m431.945 0 11.945 6.897V20.69l-11.945 6.896L420 20.69V6.897Z"/><path stroke="#000" stroke-width=".4799964" fill="#00000051" d="m455.945 0 11.945 6.897V20.69l-11.945 6.896L444 20.69V6.897Z"/><path stroke="#000" stroke-width=".4799964" fill="none" d="m479.945 0 11.945 6.897V20.69l-11.945 6.896L468 20.69V6.897ZM11.945 20.69l11.945 6.896V41.38l-11.945 6.897L0 41.379V27.586ZM35.945 20.69l11.945 6.896V41.38l-11.945 6.897L24 41.379V27.586ZM59.945 20.69l11.945 6.896V41.38l-11.945 6.897L48 41.379V27.586ZM83.945 20.69l11.945 6.896V41.38l-11.945 6.897L72 41.379V27.586ZM107.945 20.69l11.945 6.896V41.38l-11.945 6.897L96 41.379V27.586ZM131.945 20.69l11.945 6.896V41.38l-11.945 6.897L120 41.379V27.586Z"/><path stroke="#000" stroke-width=".4799964" fill="#000000a3" d="m155.945 20.69 11.945 6.896V41.38l-11.945 6.897L144 41.379V27.586Z"/><path stroke="#000" stroke-width=".4799964" fill="none" d="m179.945 20.69 11.945 6.896V41.38l-11.945 6.897L168 41.379V27.586ZM203.945 20.69l11.945 6.896V41.38l-11.945 6.897L192 41.379V27.586Z"/><path stroke="#000" stroke-width=".4799964" fill="#0000005e" d="m227.945 20.69 11.945 6.896V41.38l-11.945 6.897L216 41.379V27.586Z"/><path stroke="#000" stroke-width=".4799964" fill="none" d="m251.945 20.69 11.945 6.896V41.38l-11.945 6.897L240 41.379V27.586ZM275.945 20.69l11.945 6.896V41.38l-11.945 6.897L264 41.379V27.586ZM299.945 20.69l11.945 6.896V41.38l-11.945 6.897L288 41.379V27.586ZM323.945 20.69l11.945 6.896V41.38l-11.945 6.897L312 41.379V27.586ZM347.945 20.69l11.945 6.896V41.38l-11.945 6.897L336 41.379V27.586ZM371.945 20.69l11.945 6.896V41.38l-11.945 6.897L360 41.379V27.586Z"/><path stroke="#000" stroke-width=".4799964" fill="#000000a6" d="m395.945 20.69 11.945 6.896V41.38l-11.945 6.897L384 41.379V27.586Z"/><path stroke="#000" stroke-width=".4799964" fill="#000000b6" d="m419.945 20.69 11.945 6.896V41.38l-11.945 6.897L408 41.379V27.586Z"/><path stroke="#000" stroke-width=".4799964" fill="none" d="m443.945 20.69 11.945 6.896V41.38l-11.945 6.897L432 41.379V27.586ZM467.945 20.69l11.945 6.896V41.38l-11.945 6.897L456 41.379V27.586ZM23.945 41.38l11.945 6.896v13.793l-11.945 6.897L12 62.069V48.276Z"/><path stroke="#000" stroke-width=".4799964" fill="#000000e8" d="m47.945 41.38 11.945 6.896v13.793l-11.945 6.897L36 62.069V48.276Z"/><path stroke="#000" stroke-width=".4799964" fill="#00000073" d="m71.945 41.38 11.945 6.896v13.793l-11.945 6.897L60 62.069V48.276Z"/><path stroke="#000" stroke-width=".4799964" fill="#00000072" d="m95.945 41.38 11.945 6.896v13.793l-11.945 6.897L84 62.069V48.276Z"/><path stroke="#000" stroke-width=".4799964" fill="#000000a4" d="m119.945 41.38 11.945 6.896v13.793l-11.945 6.897L108 62.069V48.276Z"/><path stroke="#000" stroke-width=".4799964" fill="none" d="m143.945 41.38 11.945 6.896v13.793l-11.945 6.897L132 62.069V48.276ZM167.945 41.38l11.945 6.896v13.793l-11.945 6.897L156 62.069V48.276ZM191.945 41.38l11.945 6.896v13.793l-11.945 6.897L180 62.069V48.276ZM215.945 41.38l11.945 6.896v13.793l-11.945 6.897L204 62.069V48.276ZM239.945 41.38l11.945 6.896v13.793l-11.945 6.897L228 62.069V48.276ZM263.945 41.38l11.945 6.896v13.793l-11.945 6.897L252 62.069V48.276ZM287.945 41.38l11.945 6.896v13.793l-11.945 6.897L276 62.069V48.276Z"/><path stroke="#000" stroke-width=".4799964" fill="#0000003e" d="m311.945 41.38 11.945 6.896v13.793l-11.945 6.897L300 62.069V48.276Z"/><path stroke="#000" stroke-width=".4799964" fill="none" d="m335.945 41.38 11.945 6.896v13.793l-11.945 6.897L324 62.069V48.276Z"/><path stroke="#000" stroke-width=".4799964" fill="#00000072" d="m359.945 41.38 11.945 6.896v13.793l-11.945 6.897L348 62.069V48.276Z"/><path stroke="#000" stroke-width=".4799964" fill="#000000e6" d="m383.945 41.38 11.945 6.896v13.793l-11.945 6.897L372 62.069V48.276Z"/><path stroke="#000" stroke-width=".4799964" fill="none" d="m407.945 41.38 11.945 6.896v13.793l-11.945 6.897L396 62.069V48.276ZM431.945 41.38l11.945 6.896v13.793l-11.945 6.897L420 62.069V48.276ZM455.945 41.38l11.945 6.896v13.793l-11.945 6.897L444 62.069V48.276ZM479.945 41.38l11.945 6.896v13.793l-11.945 6.897L468 62.069V48.276ZM11.945 62.069l11.945 6.897v13.793l-11.945 6.896L0 82.76V68.966ZM35.945 62.069l11.945 6.897v13.793l-11.945 6.896L24 82.76V68.966Z"/><path stroke="#000" stroke-width=".4799964" fill="#000000ac" d="m59.945 62.069 11.945 6.897v13.793l-11.945 6.896L48 82.76V68.966Z"/><path stroke="#000" stroke-width=".4799964" fill="#00000070" d="m83.945 62.069 11.945 6.897v13.793l-11.945 6.896L72 82.76V68.966Z"/><path stroke="#000" stroke-width=".4799964" fill="none" d="m107.945 62.069 11.945 6.897v13.793l-11.945 6.896L96 82.76V68.966Z"/><path stroke="#000" stroke-width=".4799964" fill="#0000008f" d="m131.945 62.069 11.945 6.897v13.793l-11.945 6.896L120 82.76V68.966Z"/><path stroke="#000" stroke-width=".4799964" fill="none" d="m155.945 62.069 11.945 6.897v13.793l-11.945 6.896L144 82.76V68.966ZM179.945 62.069l11.945 6.897v13.793l-11.945 6.896L168 82.76V68.966Z"/><path stroke="#000" stroke-width=".4799964" fill="#00000033" d="m203.945 62.069 11.945 6.897v13.793l-11.945 6.896L192 82.76V68.966Z"/><path stroke="#000" stroke-width=".4799964" fill="none" d="m227.945 62.069 11.945 6.897v13.793l-11.945 6.896L216 82.76V68.966ZM251.945 62.069l11.945 6.897v13.793l-11.945 6.896L240 82.76V68.966Z"/><path stroke="#000" stroke-width=".4799964" fill="#00000026" d="m275.945 62.069 11.945 6.897v13.793l-11.945 6.896L264 82.76V68.966Z"/><path stroke="#000" stroke-width=".4799964" fill="none" d="m299.945 62.069 11.945 6.897v13.793l-11.945 6.896L288 82.76V68.966Z"/><path stroke="#000" stroke-width=".4799964" fill="#00000063" d="m323.945 62.069 11.945 6.897v13.793l-11.945 6.896L312 82.76V68.966Z"/><path stroke="#000" stroke-width=".4799964" fill="none" d="m347.945 62.069 11.945 6.897v13.793l-11.945 6.896L336 82.76V68.966ZM371.945 62.069l11.945 6.897v13.793l-11.945 6.896L360 82.76V68.966ZM395.945 62.069l11.945 6.897v13.793l-11.945 6.896L384 82.76V68.966ZM419.945 62.069l11.945 6.897v13.793l-11.945 6.896L408 82.76V68.966Z"/><path stroke="#000" stroke-width=".4799964" fill="#00000088" d="m443.945 62.069 11.945 6.897v13.793l-11.945 6.896L432 82.76V68.966Z"/><path stroke="#000" stroke-width=".4799964" fill="none" d="m467.945 62.069 11.945 6.897v13.793l-11.945 6.896L456 82.76V68.966ZM23.945 82.759l11.945 6.896v13.793l-11.945 6.897L12 103.448V89.655ZM47.945 82.759l11.945 6.896v13.793l-11.945 6.897L36 103.448V89.655ZM71.945 82.759l11.945 6.896v13.793l-11.945 6.897L60 103.448V89.655ZM95.945 82.759l11.945 6.896v13.793l-11.945 6.897L84 103.448V89.655Z"/><path stroke="#000" stroke-width=".4799964" fill="#00000054" d="m119.945 82.759 11.945 6.896v13.793l-11.945 6.897L108 103.448V89.655Z"/><path stroke="#000" stroke-width=".4799964" fill="none" d="m143.945 82.759 11.945 6.896v13.793l-11.945 6.897L132 103.448V89.655Z"/><path stroke="#000" stroke-width=".4799964" fill="#00000017" d="m167.945 82.759 11.945 6.896v13.793l-11.945 6.897L156 103.448V89.655Z"/><path stroke="#000" stroke-width=".4799964" fill="none" d="m191.945 82.759 11.945 6.896v13.793l-11.945 6.897L180 103.448V89.655Z"/><path stroke="#000" stroke-width=".4799964" fill="#00000024" d="m215.945 82.759 11.945 6.896v13.793l-11.945 6.897L204 103.448V89.655Z"/><path stroke="#000" stroke-width=".4799964" fill="#000000e9" d="m239.945 82.759 11.945 6.896v13.793l-11.945 6.897L228 103.448V89.655Z"/><path stroke="#000" stroke-width=".4799964" fill="none" d="m263.945 82.759 11.945 6.896v13.793l-11.945 6.897L252 103.448V89.655ZM287.945 82.759l11.945 6.896v13.793l-11.945 6.897L276 103.448V89.655Z"/><path stroke="#000" stroke-width=".4799964" fill="#0000007b" d="m311.945 82.759 11.945 6.896v13.793l-11.945 6.897L300 103.448V89.655Z"/><path stroke="#000" stroke-width=".4799964" fill="none" d="m335.945 82.759 11.945 6.896v13.793l-11.945 6.897L324 103.448V89.655ZM359.945 82.759l11.945 6.896v13.793l-11.945 6.897L348 103.448V89.655Z"/><path stroke="#000" stroke-width=".4799964" fill="#000000fc" d="m383.945 82.759 11.945 6.896v13.793l-11.945 6.897L372 103.448V89.655Z"/><path stroke="#000" stroke-width=".4799964" fill="none" d="m407.945 82.759 11.945 6.896v13.793l-11.945 6.897L396 103.448V89.655ZM431.945 82.759l11.945 6.896v13.793l-11.945 6.897L420 103.448V89.655ZM455.945 82.759l11.945 6.896v13.793l-11.945 6.897L444 103.448V89.655Z"/><path stroke="#000" stroke-width=".4799964" fill="none" d="m11.945 103.448 11.945 6.897v13.793l-11.945 6.896L0 124.138v-13.793ZM35.945 103.448l11.945 6.897v13.793l-11.945 6.896L24 124.138v-13.793ZM59.945 103.448l11.945 6.897v13.793l-11.945 6.896L48 124.138v-13.793ZM83.945 103.448l11.945 6.897v13.793l-11.945 6.896L72 124.138v-13.793ZM107.945 103.448l11.945 6.897v13.793l-11.945 6.896L96 124.138v-13.793Z"/><path stroke="#000" stroke-width=".4799964" fill="#000000ae" d="m131.945 103.448 11.945 6.897v13.793l-11.945 6.896L120 124.138v-13.793Z"/><path stroke="#000" stroke-width=".4799964" fill="none" d="m155.945 103.448 11.945 6.897v13.793l-11.945 6.896L144 124.138v-13.793ZM179.945 103.448l11.945 6.897v13.793l-11.945 6.896L168 124.138v-13.793ZM203.945 103.448l11.945 6.897v13.793l-11.945 6.896L192 124.138v-13.793Z"/><path stroke="#000" stroke-width=".4799964" fill="#000000f7" d="m227.945 103.448 11.945 6.897v13.793l-11.945 6.896L216 124.138v-13.793Z"/><path stroke="#000" stroke-width=".4799964" fill="#00000036" d="m251.945 103.448 11.945 6.897v13.793l-11.945 6.896L240 124.138v-13.793Z"/><path stroke="#000" stroke-width=".4799964" fill="none" d="m275.945 103.448 11.945 6.897v13.793l-11.945 6.896L264 124.138v-13.793ZM299.945 103.448l11.945 6.897v13.793l-11.945 6.896L288 124.138v-13.793ZM323.945 103.448l11.945 6.897v13.793l-11.945 6.896L312 124.138v-13.793ZM347.945 103.448l11.945 6.897v13.793l-11.945 6.896L336 124.138v-13.793Z"/><path stroke="#000" stroke-width=".4799964" fill="#0000004f" d="m371.945 103.448 11.945 6.897v13.793l-11.945 6.896L360 124.138v-13.793Z"/><path stroke="#000" stroke-width=".4799964" fill="none" d="m395.945 103.448 11.945 6.897v13.793l-11.945 6.896L384 124.138v-13.793ZM419.945 103.448l11.945 6.897v13.793l-11.945 6.896L408 124.138v-13.793ZM443.945 103.448l11.945 6.897v13.793l-11.945 6.896L432 124.138v-13.793Z"/><path stroke="#000" stroke-width=".4799964" fill="#00000007" d="m467.945 103.448 11.945 6.897v13.793l-11.945 6.896L456 124.138v-13.793Z"/></svg>