<svg xmlns="http://www.w3.org/2000/svg" viewBox="0 0 480 270"><path stroke="#000" stroke-width=".4799964" fill="none" d="M23.945 0 35.89 6.897V20.69l-11.945 6.896L12 20.69V6.897ZM47.945 0 59.89 6.897V20.69l-11.945 6.896L36 20.69V6.897Z"/><path stroke="#000" stroke-width=".4799964" fill="#00000080" d="M71.945 0 83.89 6.897V20.69l-11.945 6.896L60 20.69V6.897Z"/><path stroke="#000" stroke-width=".4799964" fill="#000000e3" d="m95.945 0 11.945 6.897V20.69l-11.945 6.896L84 20.69V6.897Z"/><path stroke="#000" stroke-width=".4799964" fill="none" d="m119.945 0 11.945 6.897V20.69l-11.945 6.896L108 20.69V6.897ZM143.945 0l11.945 6.897V20.69l-11.945 6.896L132 20.69V6.897ZM167.945 0l11.945 6.897V20.69l-11.945 6.896L156 20.69V6.897Z"/><path stroke="#000" stroke-width=".4799964" fill="#000000b4" d="m191.945 0 11.945 6.897V20.69l-11.945 6.896L180 20.69V6.897Z"/><path stroke="#000" stroke-width=".4799964" fill="none" d="m215.945 0 11.945 6.897V20.69l-11.945 6.896L204 20.69V6.897Z"/><path stroke="#000" stroke-width=".4799964" fill="#0000001a" d="m239.945 0 11.945 6.897V20.69l-11.945 6.896L228 20.69V6.897Z"/><path stroke="#000" stroke-width=".4799964" fill="none" d="m263.945 0 11.945 6.897V20.69l-11.945 6.896L252 20.69V6.897Z"/><path stroke="#000" stroke-width=".4799964" fill="#00000042" d="m287.945 0 11.945 6.897V20.69l-11.945 6.896L276 20.69V6.897Z"/><path stroke="#000" stroke-width=".4799964" fill="none" d="m311.945 0 11.945 6.897V20.69l-11.945 6.896L300 20.69V6.897ZM335.945 0l11.945 6.897V20.69l-11.945 6.896L324 20.69V6.897ZM359.945 0l11.945 6.897V20.69l-11.945 6.896L348 20.69V6.897ZM383.945 0l11.945 6.897V20.69l-11.945 6.896L372 20.69V6.897Z"/><path stroke="#000" stroke-width=".4799964" fill="#00000083" d="m407.945 0 11.945 6.897V20.69l-11.945 6.896L396 20.69V6.897Z"/><path stroke="#000" stroke-width=".4799964" fill="#00000032" d="m431.945 0 11.945 6.897V20.69l-11.945 6.896L420 20.69V6.897Z"/><path stroke="#000" stroke-width=".4799964" fill="#00000051" d="m455.945 0 11.945 6.897V20.69l-11.945 6.896L444 20.69V6.897Z"/><path stroke="#000" stroke-width=".4799964" fill="none" d="m479.945 0 11.945 6.897V20.69l-11.945 6.896L468 20.69V6.897ZM11.945 20.69l11.945 6.896V41.38l-11.945 6.897L0 41.379V27.586ZM35.945 20.69l11.945 6.896V41.38l-11.945 6.897L24 41.379V27.586ZM59.945 20.69l11.945 6.896V41.38l-11.945 6.897L48 41.379V27.586ZM83.945 20.69l11.945 6.896V41.38l-11.945 6.897L72 41.379V27.586ZM107.945 20.69l11.945 6.896V41.38l-11.945 6.897L96 41.379V27.586ZM131.945 20.69l11.945 6.896V41.38l-11.945 6.897L120 41.379V27.586Z"/><path stroke="#000" stroke-width=".4799964" fill="#000000a3" d="m155.945 20.69 11.945 6.896V41.38l-11.945 6.897L144 41.379V27.586Z"/><path stroke="#000" stroke-width=".4799964" fill="none" d="m179.945 20.69 11.945 6.896V41.38l-11.945 6.897L168 41.379V27.586ZM203.945 20.69l11.945 6.896V41.38l-11.945 6.897L192 41.379V27.586Z"/><path stroke="#000" stroke-width=".4799964" fill="#0000005e" d="m227.945 20.69 11.945 6.896V41.38l-11.945 6.897L216 41.379V27.586Z"/><path stroke="#000" stroke-width=".4799964" fill="none" d="m251.945 20.69 11.945 6.896V41.38l-11.945 6.897L240 41.379V27.586ZM275.945 20.69l11.945 6.896V41.38l-11.945 6.897L264 41.379V27.586ZM299.945 20.69l11.945 6.896V41.38l-11.945 6.897L288 41.379V27.586ZM323.945 20.69l11.945 6.896V41.38l-11.945 6.897L312 41.379V27.586ZM347.945 20.69l11.945 6.896V41.38l-11.945 6.897L336 41.379V27.586ZM371.945 20.69l11.945 6.896V41.38l-11.945 6.897L360 41.379V27.586Z"/><path stroke="#000" stroke-width=".4799964" fill="#000000a6" d="m395.945 20.69 11.945 6.896V41.38l-11.945 6.897L384 41.379V27.586Z"/><path stroke="#000" stroke-width=".4799964" fill="#000000b6" d="m419.945 20.69 11.945 6.896V41.38l-11.945 6.897L408 41.379V27.586Z"/><path stroke="#000" stroke-width=".4799964" fill="none" d="m443.945 20.69 11.945 6.896V41.38l-11.945 6.897L432 41.379V27.586ZM467.945 20.69l11.945 6.896V41.38l-11.945 6.897L456 41.379V27.586ZM23.945 41.38l11.945 6.896v13.793l-11.945 6.897L12 62.069V48.276Z"/><path stroke="#000" stroke-width=".4799964" fill="#000000e8" d="m47.945 41.38 11.945 6.896v13.793l-11.945 6.897L36 62.069V48.276Z"/><path stroke="#000" stroke-width=".4799964" fill="#00000073" d="m71.945 41.38 11.945 6.896v13.793l-11.945 6.897L60 62.069V48.276Z"/><path stroke="#000" stroke-width=".4799964" fill="#00000072" d="m95.945 41.38 11.945 6.896v13.793l-11.945 6.897L84 62.069V48.276Z"/><path stroke="#000" stroke-width=".4799964" fill="#000000a4" d="m119.945 41.38 11.945 6.896v13.793l-11.945 6.897L108 62.069V48.276Z"/><path stroke="#000" stroke-width=".4799964" fill="none" d="m143.945 41.38 11.945 6.896v13.793l-11.945 6.897L132 62.069V48.276ZM167.945 41.38l11.945 6.896v13.793l-11.945 6.897L156 62.069V48.276ZM191.945 41.38l11.945 6.896v13.793l-11.945 6.897L180 62.069V48.276ZM215.945 41.38l11.945 6.896v13.793l-11.945 6.897L204 62.069V48.276ZM239.945 41.38l11.945 6.896v13.793l-11.945 6.897L228 62.069V48.276ZM263.945 41.38l11.945 6.896v13.793l-11.945 6.897L252 62.069V48.276ZM287.945 41.38l11.945 6.896v13.793l-11.945 6.897L276 62.069V48.276Z"/><path stroke="#000" stroke-width=".4799964" fill="#0000003e" d="m311.945 41.38 11.945 6.896v13.793l-11.945 6.897L300 62.069V48.276Z"/><path stroke="#000" stroke-width=".4799964" fill="none" d="m335.945 41.38 11.945 6.896v13.793l-11.945 6.897L324 62.069V48.276Z"/><path stroke="#000" stroke-width=".4799964" fill="#00000072" d="m359.945 41.38 11.945 6.896v13.793l-11.945 6.897L348 62.069V48.276Z"/><path stroke="#000" stroke-width=".4799964" fill="#000000e6" d="m383.945 41.38 11.945 6.896v13.793l-11.945 6.897L372 62.069V48.276Z"/><path stroke="#000" stroke-width=".4799964" fill="none" d="m407.945 41.38 11.945 6.896v13.793l-11.945 6.897L396 62.069V48.276ZM431.945 41.38l11.945 6.896v13.793l-11.945 6.897L420 62.069V48.276ZM455.945 41.38l11.945 6.896v13.793l-11.945 6.897L444 62.069V48.276ZM479.945 41.38l11.945 6.896v13.793l-11.945 6.897L468 62.069V48.276ZM11.945 62.069l11.945 6.897v13.793l-11.945 6.896L0 82.76V68.966ZM35.945 62.069l11.945 6.897v13.793l-11.945 6.896L24 82.76V68.966Z"/><path stroke="#000" stroke-width=".4799964" fill="#000000ac" d="m59.945 62.069 11.945 6.897v13.793l-11.945 6.896L48 82.76V68.966Z"/><path stroke="#000" stroke-width=".4799964" fill="#00000070" d="m83.945 62.069 11.945 6.897v13.793l-11.945 6.896L72 82.76V68.966Z"/><path stroke="#000" stroke-width=".4799964" fill="none" d="m107.945 62.069 11.945 6.897v13.793l-11.945 6.896L96 82.76V68.966Z"/><path stroke="#000" stroke-width=".4799964" fill="#0000008f" d="m131.945 62.069 11.945 6.897v13.793l-11.945 6.896L120 82.76V68.966Z"/><path stroke="#000" stroke-width=".4799964" fill="none" d="m155.945 62.069 11.945 6.897v13.793l-11.945 6.896L144 82.76V68.966ZM179.945 62.069l11.945 6.897v13.793l-11.945 6.896L168 82.76V68.966Z"/><path stroke="#000" stroke-width=".4799964" fill="#00000033" d="m203.945 62.069 11.945 6.897v13.793l-11.945 6.896L192 82.76V68.966Z"/><path stroke="#000" stroke-width=".4799964" fill="none" d="m227.945 62.069 11.945 6.897v13.793l-11.945 6.896L216 82.76V68.966ZM251.945 62.069l11.945 6.897v13.793l-11.945 6.896L240 82.76V68.966Z"/><path stroke="#000" stroke-width=".4799964" fill="#00000026" d="m275.945 62.069 11.945 6.897v13.793l-11.945 6.896L264 82.76V68.966Z"/><path stroke="#000" stroke-width=".4799964" fill="none" d="m299.945 62.069 11.945 6.897v13.793l-11.945 6.896L288 82.76V68.966Z"/><path stroke="#000" stroke-width=".4799964" fill="#00000063" d="m323.945 62.069 11.945 6.897v13.793l-11.945 6.896L312 82.76V68.966Z"/><path stroke="#000" stroke-width=".4799964" fill="none" d="m347.945 62.069 11.945 6.897v13.793l-11.945 6.896L336 82.76V68.966ZM371.945 62.069l11.945 6.897v13.793l-11.945 6.896L360 82.76V68.966ZM395.945 62.069l11.945 6.897v13.793l-11.945 6.896L384 82.76V68.966ZM419.945 62.069l11.945 6.897v13.793l-11.945 6.896L408 82.76V68.966Z"/><path stroke="#000" stroke-width=".4799964" fill="#00000088" d="m443.945 62.069 11.945 6.897v13.793l-11.945 6.896L432 82.76V68.966Z"/><path stroke="#000" stroke-width=".4799964" fill="none" d="m467.945 62.069 11.945 6.897v13.793l-11.945 6.896L456 82.76V68.966ZM23.945 82.759l11.945 6.896v13.793l-11.945 6.897L12 103.448V89.655ZM47.945 82.759l11.945 6.896v13.793l-11.945 6.897L36 103.448V89.655ZM71.945 82.759l11.945 6.896v13.793l-11.945 6.897L60 103.448V89.655ZM95.945 82.759l11.945 6.896v13.793l-11.945 6.897L84 103.448V89.655Z"/><path stroke="#000" stroke-width=".4799964" fill="#00000054" d="m119.945 82.759 11.945 6.896v13.793l-11.945 6.897L108 103.448V89.655Z"/><path stroke="#000" stroke-width=".4799964" fill="none" d="m143.945 82.759 11.945 6.896v13.793l-11.945 6.897L132 103.448V89.655Z"/><path stroke="#000" stroke-width=".4799964" fill="#00000017" d="m167.945 82.759 11.945 6.896v13.793l-11.945 6.897L156 103.448V89.655Z"/><path stroke="#000" stroke-width=".4799964" fill="none" d="m191.945 82.759 11.945 6.896v13.793l-11.945 6.897L180 103.448V89.655Z"/><path stroke="#000" stroke-width=".4799964" fill="#00000024" d="m215.945 82.759 11.945 6.896v13.793l-11.945 6.897L204 103.448V89.655Z"/><path stroke="#000" stroke-width=".4799964" fill="#000000e9" d="m239.945 82.759 11.945 6.896v13.793l-11.945 6.897L228 103.448V89.655Z"/><path stroke="#000" stroke-width=".4799964" fill="none" d="m263.945 82.759 11.945 6.896v13.793l-11.945 6.897L252 103.448V89.655ZM287.945 82.759l11.945 6.896v13.793l-11.945 6.897L276 103.448V89.655Z"/><path stroke="#000" stroke-width=".4799964" fill="#0000007b" d="m311.945 82.759 11.945 6.896v13.793l-11.945 6.897L300 103.448V89.655Z"/><path stroke="#000" stroke-width=".4799964" fill="none" d="m335.945 82.759 11.945 6.896v13.793l-11.945 6.897L324 103.448V89.655ZM359.945 82.759l11.945 6.896v13.793l-11.945 6.897L348 103.448V89.655Z"/><path stroke="#000" stroke-width=".4799964" fill="#000000fc" d="m383.945 82.759 11.945 6.896v13.793l-11.945 6.897L372 103.448V89.655Z"/><path stroke="#000" stroke-width=".4799964" fill="none" d="m407.945 82.759 11.945 6.896v13.793l-11.945 6.897L396 103.448V89.655ZM431.945 82.759l11.945 6.896v13.793l-11.945 6.897L420 103.448V89.655ZM455.945 82.759l11.945 6.896v13.793l-11.945 6.897L444 103.448V89.655Z"/><path stroke="#000" stroke-width=".4799964" fill="none" d="m11.945 103.448 11.945 6.897v13.793l-11.945 6.896L0 124.138v-13.793ZM35.945 103.448l11.945 6.897v13.793l-11.945 6.896L24 124.138v-13.793ZM59.945 103.448l11.945 6.897v13.793l-11.945 6.896L48 124.138v-13.793ZM83.945 103.448l11.945 6.897v13.793l-11.945 6.896L72 124.138v-13.793ZM107.945 103.448l11.945 6.897v13.793l-11.945 6.896L96 124.138v-13.793Z"/><path stroke="#000" stroke-width=".4799964" fill="#000000ae" d="m131.945 103.448 11.945 6.897v13.793l-11.945 6.896L120 124.138v-13.793Z"/><path stroke="#000" stroke-width=".4799964" fill="none" d="m155.945 103.448 11.945 6.897v13.793l-11.945 6.896L144 124.138v-13.793ZM179.945 103.448l11.945 6.897v13.793l-11.945 6.896L168 124.138v-13.793ZM203.945 103.448l11.945 6.897v13.793l-11.945 6.896L192 124.138v-13.793Z"/><path stroke="#000" stroke-width=".4799964" fill="#000000f7" d="m227.945 103.448 11.945 6.897v13.793l-11.945 6.896L216 124.138v-13.793Z"/><path stroke="#000" stroke-width=".4799964" fill="#00000036" d="m251.945 103.448 11.945 6.897v13.793l-11.945 6.896L240 124.138v-13.793Z"/><path stroke="#000" stroke-width=".4799964" fill="none" d="m275.945 103.448 11.945 6.897v13.793l-11.945 6.896L264 124.138v-13.793ZM299.945 103.448l11.945 6.897v13.793l-11.945 6.896L288 124.138v-13.793ZM323.945 103.448l11.945 6.897v13.793l-11.945 6.896L312 124.138v-13.793ZM347.945 103.448l11.945 6.897v13.793l-11.945 6.896L336 124.138v-13.793Z"/><path stroke="#000" stroke-width=".4799964" fill="#0000004f" d="m371.945 103.448 11.945 6.897v13.793l-11.945 6.896L360 124.138v-13.793Z"/><path stroke="#000" stroke-width=".4799964" fill="none" d="m395.945 103.448 11.945 6.897v13.793l-11.945 6.896L384 124.138v-13.793ZM419.945 103.448l11.945 6.897v13.793l-11.945 6.896L408 124.138v-13.793ZM443.945 103.448l11.945 6.897v13.793l-11.945 6.896L432 124.138v-13.793Z"/><path stroke="#000" stroke-width=".4799964" fill="#00000007" d="m467.945 103.448 11.945 6.897v13.793l-11.945 6.896L456 124.138v-13.793Z"/><path stroke="#000" stroke-width=".4799964" fill="none" d="m23.945 124.138 11.945 6.896v13.794l-11.945 6.896L12 144.828v-13.794ZM47.945 124.138l11.945 6.896v13.794l-11.945 6.896L36 144.828v-13.794Z"/><path stroke="#000" stroke-width=".4799964" fill="#000000df" d="m71.945 124.138 11.945 6.896v13.794l-11.945 6.896L60 144.828v-13.794Z"/><path stroke="#000" stroke-width=".4799964" fill="none" d="m95.945 124.138 11.945 6.896v13.794l-11.945 6.896L84 144.828v-13.794ZM119.945 124.138l11.945 6.896v13.794l-11.945 6.896L108 144.828v-13.794Z"/><path stroke="#000" stroke-width=".4799964" fill="#000000a1" d="m143.945 124.138 11.945 6.896v13.794l-11.945 6.896L132 144.828v-13.794Z"/><path stroke="#000" stroke-width=".4799964" fill="none" d="m167.945 124.138 11.945 6.896v13.794l-11.945 6.896L156 144.828v-13.794ZM191.945 124.138l11.945 6.896v13.794l-11.945 6.896L180 144.828v-13.794Z"/><path stroke="#000" stroke-width=".4799964" fill="#0000009d" d="m215.945 124.138 11.945 6.896v13.794l-11.945 6.896L204 144.828v-13.794Z"/><path stroke="#000" stroke-width=".4799964" fill="none" d="m239.945 124.138 11.945 6.896v13.794l-11.945 6.896L228 144.828v-13.794Z"/><path stroke="#000" stroke-width=".4799964" fill="#000000a2" d="m263.945 124.138 11.945 6.896v13.794l-11.945 6.896L252 144.828v-13.794Z"/><path stroke="#000" stroke-width=".4799964" fill="none" d="m287.945 124.138 11.945 6.896v13.794l-11.945 6.896L276 144.828v-13.794ZM311.945 124.138l11.945 6.896v13.794l-11.945 6.896L300 144.828v-13.794ZM335.945 124.138l11.945 6.896v13.794l-11.945 6.896L324 144.828v-13.794ZM359.945 124.138l11.945 6.896v13.794l-11.945 6.896L348 144.828v-13.794ZM383.945 124.138l11.945 6.896v13.794l-11.945 6.896L372 144.828v-13.794Z"/><path stroke="#000" stroke-width=".4799964" fill="#0000000c" d="m407.945 124.138 11.945 6.896v13.794l-11.945 6.896L396 144.828v-13.794Z"/><path stroke="#000" stroke-width=".4799964" fill="none" d="m431.945 124.138 11.945 6.896v13.794l-11.945 6.896L420 144.828v-13.794Z"/><path stroke="#000" stroke-width=".4799964" fill="#000000df" d="m455.945 124.138 11.945 6.896v13.794l-11.945 6.896L444 144.828v-13.794Z"/><path stroke="#000" stroke-width=".4799964" fill="none" d="m479.945 124.138 11.945 6.896v13.794l-11.945 6.896L468 144.828v-13.794Z"/><path stroke="#000" stroke-width=".4799964" fill="#00000002" d="m11.945 144.828 11.945 6.896v13.793l-11.945 6.897L0 165.517v-13.793Z"/><path stroke="#000" stroke-width=".4799964" fill="none" d="m35.945 144.828 11.945 6.896v13.793l-11.945 6.897L24 165.517v-13.793ZM59.945 144.828l11.945 6.896v13.793l-11.945 6.897L48 165.517v-13.793Z"/><path stroke="#000" stroke-width=".4799964" fill="#00000051" d="m83.945 144.828 11.945 6.896v13.793l-11.945 6.897L72 165.517v-13.793Z"/><path stroke="#000" stroke-width=".4799964" fill="none" d="m107.945 144.828 11.945 6.896v13.793l-11.945 6.897L96 165.517v-13.793Z"/><path stroke="#000" stroke-width=".4799964" fill="#00000057" d="m131.945 144.828 11.945 6.896v13.793l-11.945 6.897L120 165.517v-13.793Z"/><path stroke="#000" stroke-width=".4799964" fill="#0000001c" d="m155.945 144.828 11.945 6.896v13.793l-11.945 6.897L144 165.517v-13.793Z"/><path stroke="#000" stroke-width=".4799964" fill="none" d="m179.945 144.828 11.945 6.896v13.793l-11.945 6.897L168 165.517v-13.793ZM203.945 144.828l11.945 6.896v13.793l-11.945 6.897L192 165.517v-13.793ZM227.945 144.828l11.945 6.896v13.793l-11.945 6.897L216 165.517v-13.793ZM251.945 144.828l11.945 6.896v13.793l-11.945 6.897L240 165.517v-13.793Z"/><path stroke="#000" stroke-width=".4799964" fill="#00000066" d="m275.945 144.828 11.945 6.896v13.793l-11.945 6.897L264 165.517v-13.793Z"/><path stroke="#000" stroke-width=".4799964" fill="#00000065" d="m299.945 144.828 11.945 6.896v13.793l-11.945 6.897L288 165.517v-13.793Z"/><path stroke="#000" stroke-width=".4799964" fill="none" d="m323.945 144.828 11.945 6.896v13.793l-11.945 6.897L312 165.517v-13.793ZM347.945 144.828l11.945 6.896v13.793l-11.945 6.897L336 165.517v-13.793ZM371.945 144.828l11.945 6.896v13.793l-11.945 6.897L360 165.517v-13.793ZM395.945 144.828l11.945 6.896v13.793l-11.945 6.897L384 165.517v-13.793ZM419.945 144.828l11.945 6.896v13.793l-11.945 6.897L408 165.517v-13.793ZM443.945 144.828l11.945 6.896v13.793l-11.945 6.897L432 165.517v-13.793ZM467.945 144.828l11.945 6.896v13.793l-11.945 6.897L456 165.517v-13.793ZM23.945 165.517l11.945 6.897v13.793l-11.945 6.896L12 186.207v-13.793ZM47.945 165.517l11.945 6.897v13.793l-11.945 6.896L36 186.207v-13.793ZM71.945 165.517l11.945 6.897v13.793l-11.945 6.896L60 186.207v-13.793ZM95.945 165.517l11.945 6.897v13.793l-11.945 6.896L84 186.207v-13.793ZM119.945 165.517l11.945 6.897v13.793l-11.945 6.896L108 186.207v-13.793ZM143.945 165.517l11.945 6.897v13.793l-11.945 6.896L132 186.207v-13.793ZM167.945 165.517l11.945 6.897v13.793l-11.945 6.896L156 186.207v-13.793ZM191.945 165.517l11.945 6.897v13.793l-11.945 6.896L180 186.207v-13.793Z"/><path stroke="#000" stroke-width=".4799964" fill="#000000ef" d="m215.945 165.517 11.945 6.897v13.793l-11.945 6.896L204 186.207v-13.793Z"/><path stroke="#000" stroke-width=".4799964" fill="#000000d0" d="m239.945 165.517 11.945 6.897v13.793l-11.945 6.896L228 186.207v-13.793Z"/><path stroke="#000" stroke-width=".4799964" fill="none" d="m263.945 165.517 11.945 6.897v13.793l-11.945 6.896L252 186.207v-13.793Z"/><path stroke="#000" stroke-width=".4799964" fill="#0000009b" d="m287.945 165.517 11.945 6.897v13.793l-11.945 6.896L276 186.207v-13.793Z"/><path stroke="#000" stroke-width=".4799964" fill="none" d="m311.945 165.517 11.945 6.897v13.793l-11.945 6.896L300 186.207v-13.793ZM335.945 165.517l11.945 6.897v13.793l-11.945 6.896L324 186.207v-13.793ZM359.945 165.517l11.945 6.897v13.793l-11.945 6.896L348 186.207v-13.793ZM383.945 165.517l11.945 6.897v13.793l-11.945 6.896L372 186.207v-13.793ZM407.945 165.517l11.945 6.897v13.793l-11.945 6.896L396 186.207v-13.793ZM431.945 165.517l11.945 6.897v13.793l-11.945 6.896L420 186.207v-13.793ZM455.945 165.517l11.945 6.897v13.793l-11.945 6.896L444 186.207v-13.793ZM479.945 165.517l11.945 6.897v13.793l-11.945 6.896L468 186.207v-13.793ZM11.945 186.207l11.945 6.896v13.794l-11.945 6.896L0 206.897v-13.794Z"/><path stroke="#000" stroke-width=".4799964" fill="#00000006" d="m35.945 186.207 11.945 6.896v13.794l-11.945 6.896L24 206.897v-13.794Z"/><path stroke="#000" stroke-width=".4799964" fill="none" d="m59.945 186.207 11.945 6.896v13.794l-11.945 6.896L48 206.897v-13.794ZM83.945 186.207l11.945 6.896v13.794l-11.945 6.896L72 206.897v-13.794Z"/><path stroke="#000" stroke-width=".4799964" fill="#00000096" d="m107.945 186.207 11.945 6.896v13.794l-11.945 6.896L96 206.897v-13.794Z"/><path stroke="#000" stroke-width=".4799964" fill="none" d="m131.945 186.207 11.945 6.896v13.794l-11.945 6.896L120 206.897v-13.794ZM155.945 186.207l11.945 6.896v13.794l-11.945 6.896L144 206.897v-13.794ZM179.945 186.207l11.945 6.896v13.794l-11.945 6.896L168 206.897v-13.794ZM203.945 186.207l11.945 6.896v13.794l-11.945 6.896L192 206.897v-13.794ZM227.945 186.207l11.945 6.896v13.794l-11.945 6.896L216 206.897v-13.794ZM251.945 186.207l11.945 6.896v13.794l-11.945 6.896L240 206.897v-13.794Z"/><path stroke="#000" stroke-width=".4799964" fill="#000000f3" d="m275.945 186.207 11.945 6.896v13.794l-11.945 6.896L264 206.897v-13.794Z"/><path stroke="#000" stroke-width=".4799964" fill="#0000006a" d="m299.945 186.207 11.945 6.896v13.794l-11.945 6.896L288 206.897v-13.794Z"/><path stroke="#000" stroke-width=".4799964" fill="#0000003e" d="m323.945 186.207 11.945 6.896v13.794l-11.945 6.896L312 206.897v-13.794Z"/><path stroke="#000" stroke-width=".4799964" fill="#00000043" d="m347.945 186.207 11.945 6.896v13.794l-11.945 6.896L336 206.897v-13.794Z"/><path stroke="#000" stroke-width=".4799964" fill="none" d="m371.945 186.207 11.945 6.896v13.794l-11.945 6.896L360 206.897v-13.794ZM395.945 186.207l11.945 6.896v13.794l-11.945 6.896L384 206.897v-13.794ZM419.945 186.207l11.945 6.896v13.794l-11.945 6.896L408 206.897v-13.794Z"/><path stroke="#000" stroke-width=".4799964" fill="#000000ae" d="m443.945 186.207 11.945 6.896v13.794l-11.945 6.896L432 206.897v-13.794Z"/><path stroke="#000" stroke-width=".4799964" fill="none" d="m467.945 186.207 11.945 6.896v13.794l-11.945 6.896L456 206.897v-13.794ZM23.945 206.897l11.945 6.896v13.793l-11.945 6.897L12 227.586v-13.793ZM47.945 206.897l11.945 6.896v13.793l-11.945 6.897L36 227.586v-13.793Z"/><path stroke="#000" stroke-width=".4799964" fill="#00000065" d="m71.945 206.897 11.945 6.896v13.793l-11.945 6.897L60 227.586v-13.793Z"/><path stroke="#000" stroke-width=".4799964" fill="none" d="m95.945 206.897 11.945 6.896v13.793l-11.945 6.897L84 227.586v-13.793Z"/><path stroke="#000" stroke-width=".4799964" fill="#00000000" d="m119.945 206.897 11.945 6.896v13.793l-11.945 6.897L108 227.586v-13.793Z"/><path stroke="#000" stroke-width=".4799964" fill="#0000003e" d="m143.945 206.897 11.945 6.896v13.793l-11.945 6.897L132 227.586v-13.793Z"/><path stroke="#000" stroke-width=".4799964" fill="none" d="m167.945 206.897 11.945 6.896v13.793l-11.945 6.897L156 227.586v-13.793ZM191.945 206.897l11.945 6.896v13.793l-11.945 6.897L180 227.586v-13.793ZM215.945 206.897l11.945 6.896v13.793l-11.945 6.897L204 227.586v-13.793Z"/><path stroke="#000" stroke-width=".4799964" fill="#00000086" d="m239.945 206.897 11.945 6.896v13.793l-11.945 6.897L228 227.586v-13.793Z"/><path stroke="#000" stroke-width=".4799964" fill="none" d="m263.945 206.897 11.945 6.896v13.793l-11.945 6.897L252 227.586v-13.793Z"/><path stroke="#000" stroke-width=".4799964" fill="#00000003" d="m287.945 206.897 11.945 6.896v13.793l-11.945 6.897L276 227.586v-13.793Z"/><path stroke="#000" stroke-width=".4799964" fill="none" d="m311.945 206.897 11.945 6.896v13.793l-11.945 6.897L300 227.586v-13.793ZM335.945 206.897l11.945 6.896v13.793l-11.945 6.897L324 227.586v-13.793Z"/><path stroke="#000" stroke-width=".4799964" fill="#0000001b" d="m359.945 206.897 11.945 6.896v13.793l-11.945 6.897L348 227.586v-13.793Z"/><path stroke="#000" stroke-width=".4799964" fill="none" d="m383.945 206.897 11.945 6.896v13.793l-11.945 6.897L372 227.586v-13.793ZM407.945 206.897l11.945 6.896v13.793l-11.945 6.897L396 227.586v-13.793ZM431.945 206.897l11.945 6.896v13.793l-11.945 6.897L420 227.586v-13.793Z"/><path stroke="#000" stroke-width=".4799964" fill="#0000000c" d="m455.945 206.897 11.945 6.896v13.793l-11.945 6.897L444 227.586v-13.793Z"/><path stroke="#000" stroke-width=".4799964" fill="none" d="m479.945 206.897 11.945 6.896v13.793l-11.945 6.897L468 227.586v-13.793ZM11.945 227.586l11.945 6.897v13.793l-11.945 6.896L0 248.276v-13.793ZM35.945 227.586l11.945 6.897v13.793l-11.945 6.896L24 248.276v-13.793Z"/><path stroke="#000" stroke-width=".4799964" fill="#00000072" d="m59.945 227.586 11.945 6.897v13.793l-11.945 6.896L48 248.276v-13.793Z"/><path stroke="#000" stroke-width=".4799964" fill="none" d="m83.945 227.586 11.945 6.897v13.793l-11.945 6.896L72 248.276v-13.793Z"/><path stroke="#000" stroke-width=".4799964" fill="#00000038" d="m107.945 227.586 11.945 6.897v13.793l-11.945 6.896L96 248.276v-13.793Z"/><path stroke="#000" stroke-width=".4799964" fill="none" d="m131.945 227.586 11.945 6.897v13.793l-11.945 6.896L120 248.276v-13.793ZM155.945 227.586l11.945 6.897v13.793l-11.945 6.896L144 248.276v-13.793Z"/><path stroke="#000" stroke-width=".4799964" fill="#00000022" d="m179.945 227.586 11.945 6.897v13.793l-11.945 6.896L168 248.276v-13.793Z"/><path stroke="#000" stroke-width=".4799964" fill="#0000008a" d="m203.945 227.586 11.945 6.897v13.793l-11.945 6.896L192 248.276v-13.793Z"/><path stroke="#000" stroke-width=".4799964" fill="none" d="m227.945 227.586 11.945 6.897v13.793l-11.945 6.896L216 248.276v-13.793ZM251.945 227.586l11.945 6.897v13.793l-11.945 6.896L240 248.276v-13.793ZM275.945 227.586l11.945 6.897v13.793l-11.945 6.896L264 248.276v-13.793ZM299.945 227.586l11.945 6.897v13.793l-11.945 6.896L288 248.276v-13.793ZM323.945 227.586l11.945 6.897v13.793l-11.945 6.896L312 248.276v-13.793ZM347.945 227.586l11.945 6.897v13.793l-11.945 6.896L336 248.276v-13.793ZM371.945 227.586l11.945 6.897v13.793l-11.945 6.896L360 248.276v-13.793ZM395.945 227.586l11.945 6.897v13.793l-11.945 6.896L384 248.276v-13.793ZM419.945 227.586l11.945 6.897v13.793l-11.945 6.896L408 248.276v-13.793ZM443.945 227.586l11.945 6.897v13.793l-11.945 6.896L432 248.276v-13.793ZM467.945 227.586l11.945 6.897v13.793l-11.945 6.896L456 248.276v-13.793Z"/><path stroke="#000" stroke-width=".4799964" fill="#00000072" d="m23.945 248.276 11.945 6.896v13.794l-11.945 6.896L12 268.966v-13.794Z"/><path stroke="#000" stroke-width=".4799964" fill="none" d="m47.945 248.276 11.945 6.896v13.794l-11.945 6.896L36 268.966v-13.794Z"/><path stroke="#000" stroke-width=".4799964" fill="#000000c3" d="m71.945 248.276 11.945 6.896v13.794l-11.945 6.896L60 268.966v-13.794Z"/><path stroke="#000" stroke-width=".4799964" fill="none" d="m95.945 248.276 11.945 6.896v13.794l-11.945 6.896L84 268.966v-13.794ZM119.945 248.276l11.945 6.896v13.794l-11.945 6.896L108 268.966v-13.794ZM143.945 248.276l11.945 6.896v13.794l-11.945 6.896L132 268.966v-13.794ZM167.945 248.276l11.945 6.896v13.794l-11.945 6.896L156 268.966v-13.794ZM191.945 248.276l11.945 6.896v13.794l-11.945 6.896L180 268.966v-13.794ZM215.945 248.276l11.945 6.896v13.794l-11.945 6.896L204 268.966v-13.794Z"/><path stroke="#000" stroke-width=".4799964" fill="#00000088" d="m239.945 248.276 11.945 6.896v13.794l-11.945 6.896L228 268.966v-13.794Z"/><path stroke="#000" stroke-width=".4799964" fill="none" d="m263.945 248.276 11.945 6.896v13.794l-11.945 6.896L252 268.966v-13.794ZM287.945 248.276l11.945 6.896v13.794l-11.945 6.896L276 268.966v-13.794ZM311.945 248.276l11.945 6.896v13.794l-11.945 6.896L300 268.966v-13.794ZM335.945 248.276l11.945 6.896v13.794l-11.945 6.896L324 268.966v-13.794Z"/><path stroke="#000" stroke-width=".4799964" fill="#00000074" d="m359.945 248.276 11.945 6.896v13.794l-11.945 6.896L348 268.966v-13.794Z"/><path stroke="#000" stroke-width=".4799964" fill="none" d="m383.945 248.276 11.945 6.896v13.794l-11.945 6.896L372 268.966v-13.794ZM407.945 248.276l11.945 6.896v13.794l-11.945 6.896L396 268.966v-13.794ZM431.945 248.276l11.945 6.896v13.794l-11.945 6.896L420 268.966v-13.794ZM455.945 248.276l11.945 6.896v13.794l-11.945 6.896L444 268.966v-13.794Z"/></svg>