<svg viewBox="0 0 480 270" xmlns="http://www.w3.org/2000/svg"><path stroke="#000" stroke-width=".4799964" fill="none" d="M23.945 0 35.89 6.897V20.69l-11.945 6.896L12 20.69V6.897ZM47.945 0 59.89 6.897V20.69l-11.945 6.896L36 20.69V6.897Z"/><path stroke="#000" stroke-width=".4799964" fill="#00000080" d="M71.945 0 83.89 6.897V20.69l-11.945 6.896L60 20.69V6.897Z"/><path stroke="#000" stroke-width=".4799964" fill="#000000e3" d="m95.945 0 11.945 6.897V20.69l-11.945 6.896L84 20.69V6.897Z"/><path stroke="#000" stroke-width=".4799964" fill="none" d="m119.945 0 11.945 6.897V20.69l-11.945 6.896L108 20.69V6.897ZM143.945 0l11.945 6.897V20.69l-11.945 6.896L132 20.69V6.897ZM167.945 0l11.945 6.897V20.69l-11.945 6.896L156 20.69V6.897Z"/><path stroke="#000" stroke-width=".4799964" fill="#000000b4" d="m191.945 0 11.945 6.897V20.69l-11.945 6.896L180 20.69V6.897Z"/><path stroke="#000" stroke-width=".4799964" fill="none" d="m215.945 0 11.945 6.897V20.69l-11.945 6.896L204 20.69V6.897Z"/><path stroke="#000" stroke-width=".4799964" fill="#0000001a" d="m239.945 0 11.945 6.897V20.69l-11.945 6.896L228 20.69V6.897Z"/><path stroke="#000" stroke-width=".4799964" fill="none" d="m263.945 0 11.945 6.897V20.69l-11.945 6.896L252 20.69V6.897Z"/><path stroke="#000" stroke-width=".4799964" fill="#00000042" d="m287.945 0 11.945 6.897V20.69l-11.945 6.896L276 20.69V6.897Z"/><path stroke="#000" stroke-width=".4799964" fill="none" d="m311.945 0 11.945 6.897V20.69l-11.945 6.896L300 20.69V6.897ZM335.945 0l11.945 6.897V20.69l-11.945 6.896L324 20.69V6.897ZM359.945 0l11.945 6.897V20.69l-11.945 6.896L348 20.69V6.897ZM383.945 0l11.945 6.897V20.69l-11.945 6.896L372 20.69V6.897Z"/><path stroke="#000" stroke-width=".4799964" fill="#00000083" d="m407.945 0 11.945 6.897V20.69l-11.945 6.896L396 20.69V6.897Z"/><path stroke="#000" stroke-width=".4799964" fill="#00000032" d="m431.945 0 11.945 6.897V20.69l-11.945 6.896L420 20.69V6.897Z"/><path stroke="#000" stroke-width=".4799964" fill="#00000051" d="m455.945 0 11.945 6.897V20.69l-11.945 6.896L444 20.69V6.897Z"/><path stroke="#000" stroke-width=".4799964" fill="none" d="m479.945 0 11.945 6.897V20.69l-11.945 6.896L468 20.69V6.897ZM11.945 20.69l11.945 6.896V41.38l-11.945 6.897L0 41.379V27.586ZM35.945 20.69l11.945 6.896V41.38l-11.945 6.897L24 41.379V27.586ZM59.945 20.69l11.945 6.896V41.38l-11.945 6.897L48 41.379V27.586ZM83.945 20.69l11.945 6.896V41.38l-11.945 6.897L72 41.379V27.586ZM107.945 20.69l11.945 6.896V41.38l-11.945 6.897L96 41.379V27.586ZM131.945 20.69l11.945 6.896V41.38l-11.945 6.897L120 41.379V27.586Z"/><path stroke="#000" stroke-width=".4799964" fill="#000000a3" d="m155.945 20.69 11.945 6.896V41.38l-11.945 6.897L144 41.379V27.586Z"/><path stroke="#000" stroke-width=".4799964" fill="none" d="m179.945 20.69 11.945 6.896V41.38l-11.945 6.897L168 41.379V27.586ZM203.945 20.69l11.945 6.896V41.38l-11.945 6.897L192 41.379V27.586Z"/><path stroke="#000" stroke-width=".4799964" fill="#0000005e" d="m227.945 20.69 11.945 6.896V41.38l-11.945 6.897L216 41.379V27.586Z"/><path stroke="#000" stroke-width=".4799964" fill="none" d="m251.945 20.69 11.945 6.896V41.38l-11.945 6.897L240 41.379V27.586ZM275.945 20.69l11.945 6.896V41.38l-11.945 6.897L264 41.379V27.586ZM299.945 20.69l11.945 6.896V41.38l-11.945 6.897L288 41.379V27.586ZM323.945 20.69l11.945 6.896V41.38l-11.945 6.897L312 41.379V27.586ZM347.945 20.69l11.945 6.896V41.38l-11.945 6.897L336 41.379V27.586ZM371.945 20.69l11.945 6.896V41.38l-11.945 6.897L360 41.379V27.586Z"/><path stroke="#000" stroke-width=".4799964" fill="#000000a6" d="m395.945 20.69 11.945 6.896V41.38l-11.945 6.897L384 41.379V27.586Z"/><path stroke="#000" stroke-width=".4799964" fill="#000000b6" d="m419.945 20.69 11.945 6.896V41.38l-11.945 6.897L408 41.379V27.586Z"/><path stroke="#000" stroke-width=".4799964" fill="none" d="m443.945 20.69 11.945 6.896V41.38l-11.945 6.897L432 41.379V27.586ZM467.945 20.69l11.945 6.896V41.38l-11.945 6.897L456 41.379V27.586ZM23.945 41.38l11.945 6.896v13.793l-11.945 6.897L12 62.069V48.276Z"/><path stroke="#000" stroke-width=".4799964" fill="#000000e8" d="m47.945 41.38 11.945 6.896v13.793l-11.945 6.897L36 62.069V48.276Z"/><path stroke="#000" stroke-width=".4799964" fill="#00000073" d="m71.945 41.38 11.945 6.896v13.793l-11.945 6.897L60 62.069V48.276Z"/><path stroke="#000" stroke-width=".4799964" fill="#00000072" d="m95.945 41.38 11.945 6.896v13.793l-11.945 6.897L84 62.069V48.276Z"/><path stroke="#000" stroke-width=".4799964" fill="#000000a4" d="m119.945 41.38 11.945 6.896v13.793l-11.945 6.897L108 62.069V48.276Z"/><path stroke="#000" stroke-width=".4799964" fill="none" d="m143.945 41.38 11.945 6.896v13.793l-11.945 6.897L132 62.069V48.276ZM167.945 41.38l11.945 6.896v13.793l-11.945 6.897L156 62.069V48.276ZM191.945 41.38l11.945 6.896v13.793l-11.945 6.897L180 62.069V48.276ZM215.945 41.38l11.945 6.896v13.793l-11.945 6.897L204 62.069V48.276ZM239.945 41.38l11.945 6.896v13.793l-11.945 6.897L228 62.069V48.276ZM263.945 41.38l11.945 6.896v13.793l-11.945 6.897L252 62.069V48.276ZM287.945 41.38l11.945 6.896v13.793l-11.945 6.897L276 62.069V48.276Z"/><path stroke="#000" stroke-width=".4799964" fill="#0000003e" d="m311.945 41.38 11.945 6.896v13.793l-11.945 6.897L300 62.069V48.276Z"/><path stroke="#000" stroke-width=".4799964" fill="none" d="m335.945 41.38 11.945 6.896v13.793l-11.945 6.897L324 62.069V48.276Z"/><path stroke="#000" stroke-width=".4799964" fill="#00000072" d="m359.945 41.38 11.945 6.896v13.793l-11.945 6.897L348 62.069V48.276Z"/><path stroke="#000" stroke-width=".4799964" fill="#000000e6" d="m383.945 41.38 11.945 6.896v13.793l-11.945 6.897L372 62.069V48.276Z"/><path stroke="#000" stroke-width=".4799964" fill="none" d="m407.945 41.38 11.945 6.896v13.793l-11.945 6.897L396 62.069V48.276ZM431.945 41.38l11.945 6.896v13.793l-11.945 6.897L420 62.069V48.276ZM455.945 41.38l11.945 6.896v13.793l-11.945 6.897L444 62.069V48.276ZM479.945 41.38l11.945 6.896v13.793l-11.945 6.897L468 62.069V48.276ZM11.945 62.069l11.945 6.897v13.793l-11.945 6.896L0 82.76V68.966ZM35.945 62.069l11.945 6.897v13.793l-11.945 6.896L24 82.76V68.966Z"/><path stroke="#000" stroke-width=".4799964" fill="#000000ac" d="m59.945 62.069 11.945 6.897v13.793l-11.945 6.896L48 82.76V68.966Z"/><path stroke="#000" stroke-width=".4799964" fill="#00000070" d="m83.945 62.069 11.945 6.897v13.793l-11.945 6.896L72 82.76V68.966Z"/><path stroke="#000" stroke-width=".4799964" fill="none" d="m107.945 62.069 11.945 6.897v13.793l-11.945 6.896L96 82.76V68.966Z"/><path stroke="#000" stroke-width=".4799964" fill="#0000008f" d="m131.945 62.069 11.945 6.897v13.793l-11.945 6.896L120 82.76V68.966Z"/><path stroke="#000" stroke-width=".4799964" fill="none" d="m155.945 62.069 11.945 6.897v13.793l-11.945 6.896L144 82.76V68.966ZM179.945 62.069l11.945 6.897v13.793l-11.945 6.896L168 82.76V68.966Z"/><path stroke="#000" stroke-width=".4799964" fill="#00000033" d="m203.945 62.069 11.945 6.897v13.793l-11.945 6.896L192 82.76V68.966Z"/><path stroke="#000" stroke-width=".4799964" fill="none" d="m227.945 62.069 11.945 6.897v13.793l-11.945 6.896L216 82.76V68.966ZM251.945 62.069l11.945 6.897v13.793l-11.945 6.896L240 82.76V68.966Z"/><path stroke="#000" stroke-width=".4799964" fill="#00000026" d="m275.945 62.069 11.945 6.897v13.793l-11.945 6.896L264 82.76V68.966Z"/><path stroke="#000" stroke-width=".4799964" fill="none" d="m299.945 62.069 11.945 6.897v13.793l-11.945 6.896L288 82.76V68.966Z"/><path stroke="#000" stroke-width=".4799964" fill="#00000063" d="m323.945 62.069 11.945 6.897v13.793l-11.945 6.896L312 82.76V68.966Z"/><path stroke="#000" stroke-width=".4799964" fill="none" d="m347.945 62.069 11.945 6.897v13.793l-11.945 6.896L336 82.76V68.966ZM371.945 62.069l11.945 6.897v13.793l-11.945 6.896L360 82.76V68.966ZM395.945 62.069l11.945 6.897v13.793l-11.945 6.896L384 82.76V68.966ZM419.945 62.069l11.945 6.897v13.793l-11.945 6.896L408 82.76V68.966Z"/><path stroke="#000" stroke-width=".4799964" fill="#00000088" d="m443.945 62.069 11.945 6.897v13.793l-11.945 6.896L432 82.76V68.966Z"/><path stroke="#000" stroke-width=".4799964" fill="none" d="m467.945 62.069 11.945 6.897v13.793l-11.945 6.896L456 82.76V68.966ZM23.945 82.759l11.945 6.896v13.793l-11.945 6.897L12 103.448V89.655ZM47.945 82.759l11.945 6.896v13.793l-11.945 6.897L36 103.448V89.655ZM71.945 82.759l11.945 6.896v13.793l-11.945 6.897L60 103.448V89.655ZM95.945 82.759l11.945 6.896v13.793l-11.945 6.897L84 103.448V89.655Z"/><path stroke="#000" stroke-width=".4799964" fill="#00000054" d="m119.945 82.759 11.945 6.896v13.793l-11.945 6.897L108 103.448V89.655Z"/><path stroke="#000" stroke-width=".4799964" fill="none" d="m143.945 82.759 11.945 6.896v13.793l-11.945 6.897L132 103.448V89.655Z"/><path stroke="#000" stroke-width=".4799964" fill="#00000017" d="m167.945 82.759 11.945 6.896v13.793l-11.945 6.897L156 103.448V89.655Z"/><path stroke="#000" stroke-width=".4799964" fill="none" d="m191.945 82.759 11.945 6.896v13.793l-11.945 6.897L180 103.448V89.655Z"/><path stroke="#000" stroke-width=".4799964" fill="#00000024" d="m215.945 82.759 11.945 6.896v13.793l-11.945 6.897L204 103.448V89.655Z"/><path stroke="#000" stroke-width=".4799964" fill="#000000e9" d="m239.945 82.759 11.945 6.896v13.793l-11.945 6.897L228 103.448V89.655Z"/><path stroke="#000" stroke-width=".4799964" fill="none" d="m263.945 82.759 11.945 6.896v13.793l-11.945 6.897L252 103.448V89.655ZM287.945 82.759l11.945 6.896v13.793l-11.945 6.897L276 103.448V89.655Z"/><path stroke="#000" stroke-width=".4799964" fill="#0000007b" d="m311.945 82.759 11.945 6.896v13.793l-11.945 6.897L300 103.448V89.655Z"/><path stroke="#000" stroke-width=".4799964" fill="none" d="m335.945 82.759 11.945 6.896v13.793l-11.945 6.897L324 103.448V89.655ZM359.945 82.759l11.945 6.896v13.793l-11.945 6.897L348 103.448V89.655Z"/><path stroke="#000" stroke-width=".4799964" fill="#000000fc" d="m383.945 82.759 11.945 6.896v13.793l-11.945 6.897L372 103.448V89.655Z"/><path stroke="#000" stroke-width=".4799964" fill="none" d="m407.945 82.759 11.945 6.896v13.793l-11.945 6.897L396 103.448V89.655ZM431.945 82.759l11.945 6.896v13.793l-11.945 6.897L420 103.448V89.655ZM455.945 82.759l11.945 6.896v13.793l-11.945 6.897L444 103.448V89.655Z"/><path stroke="#000" stroke-width=".4799964" fill="#000000b5" d="m479.945 82.759 11.945 6.896v13.793l-11.945 6.897L468 103.448V89.655Z"/><path stroke="#000" stroke-width=".4799964" fill="none" d="m11.945 103.448 11.945 6.897v13.793l-11.945 6.896L0 124.138v-13.793ZM35.945 103.448l11.945 6.897v13.793l-11.945 6.896L24 124.138v-13.793ZM59.945 103.448l11.945 6.897v13.793l-11.945 6.896L48 124.138v-13.793ZM83.945 103.448l11.945 6.897v13.793l-11.945 6.896L72 124.138v-13.793ZM107.945 103.448l11.945 6.897v13.793l-11.945 6.896L96 124.138v-13.793Z"/><path stroke="#000" stroke-width=".4799964" fill="#000000ae" d="m131.945 103.448 11.945 6.897v13.793l-11.945 6.896L120 124.138v-13.793Z"/><path stroke="#000" stroke-width=".4799964" fill="none" d="m155.945 103.448 11.945 6.897v13.793l-11.945 6.896L144 124.138v-13.793ZM179.945 103.448l11.945 6.897v13.793l-11.945 6.896L168 124.138v-13.793ZM203.945 103.448l11.945 6.897v13.793l-11.945 6.896L192 124.138v-13.793Z"/><path stroke="#000" stroke-width=".4799964" fill="#000000f7" d="m227.945 103.448 11.945 6.897v13.793l-11.945 6.896L216 124.138v-13.793Z"/><path stroke="#000" stroke-width=".4799964" fill="#00000036" d="m251.945 103.448 11.945 6.897v13.793l-11.945 6.896L240 124.138v-13.793Z"/><path stroke="#000" stroke-width=".4799964" fill="none" d="m275.945 103.448 11.945 6.897v13.793l-11.945 6.896L264 124.138v-13.793ZM299.945 103.448l11.945 6.897v13.793l-11.945 6.896L288 124.138v-13.793ZM323.945 103.448l11.945 6.897v13.793l-11.945 6.896L312 124.138v-13.793ZM347.945 103.448l11.945 6.897v13.793l-11.945 6.896L336 124.138v-13.793Z"/><path stroke="#000" stroke-width=".4799964" fill="#0000004f" d="m371.945 103.448 11.945 6.897v13.793l-11.945 6.896L360 124.138v-13.793Z"/><path stroke="#000" stroke-width=".4799964" fill="none" d="m395.945 103.448 11.945 6.897v13.793l-11.945 6.896L384 124.138v-13.793ZM419.945 103.448l11.945 6.897v13.793l-11.945 6.896L408 124.138v-13.793ZM443.945 103.448l11.945 6.897v13.793l-11.945 6.896L432 124.138v-13.793Z"/><path stroke="#000" stroke-width=".4799964" fill="#00000007" d="m467.945 103.448 11.945 6.897v13.793l-11.945 6.896L456 124.138v-13.793Z"/><path stroke="#000" stroke-width=".4799964" fill="none" d="m23.945 124.138 11.945 6.896v13.794l-11.945 6.896L12 144.828v-13.794ZM47.945 124.138l11.945 6.896v13.794l-11.945 6.896L36 144.828v-13.794Z"/><path stroke="#000" stroke-width=".4799964" fill="#000000df" d="m71.945 124.138 11.945 6.896v13.794l-11.945 6.896L60 144.828v-13.794Z"/><path stroke="#000" stroke-width=".4799964" fill="none" d="m95.945 124.138 11.945 6.896v13.794l-11.945 6.896L84 144.828v-13.794ZM119.945 124.138l11.945 6.896v13.794l-11.945 6.896L108 144.828v-13.794Z"/><path stroke="#000" stroke-width=".4799964" fill="#000000a1" d="m143.945 124.138 11.945 6.896v13.794l-11.945 6.896L132 144.828v-13.794Z"/><path stroke="#000" stroke-width=".4799964" fill="none" d="m167.945 124.138 11.945 6.896v13.794l-11.945 6.896L156 144.828v-13.794ZM191.945 124.138l11.945 6.896v13.794l-11.945 6.896L180 144.828v-13.794Z"/><path stroke="#000" stroke-width=".4799964" fill="#0000009d" d="m215.945 124.138 11.945 6.896v13.794l-11.945 6.896L204 144.828v-13.794Z"/><path stroke="#000" stroke-width=".4799964" fill="none" d="m239.945 124.138 11.945 6.896v13.794l-11.945 6.896L228 144.828v-13.794Z"/><path stroke="#000" stroke-width=".4799964" fill="#000000a2" d="m263.945 124.138 11.945 6.896v13.794l-11.945 6.896L252 144.828v-13.794Z"/><path stroke="#000" stroke-width=".4799964" fill="none" d="m287.945 124.138 11.945 6.896v13.794l-11.945 6.896L276 144.828v-13.794ZM311.945 124.138l11.945 6.896v13.794l-11.945 6.896L300 144.828v-13.794ZM335.945 124.138l11.945 6.896v13.794l-11.945 6.896L324 144.828v-13.794ZM359.945 124.138l11.945 6.896v13.794l-11.945 6.896L348 144.828v-13.794ZM383.945 124.138l11.945 6.896v13.794l-11.945 6.896L372 144.828v-13.794Z"/><path stroke="#000" stroke-width=".4799964" fill="#0000000c" d="m407.945 124.138 11.945 6.896v13.794l-11.945 6.896L396 144.828v-13.794Z"/><path stroke="#000" stroke-width=".4799964" fill="none" d="m431.945 124.138 11.945 6.896v13.794l-11.945 6.896L420 144.828v-13.794Z"/><path stroke="#000" stroke-width=".4799964" fill="#000000df" d="m455.945 124.138 11.945 6.896v13.794l-11.945 6.896L444 144.828v-13.794Z"/><path stroke="#000" stroke-width=".4799964" fill="none" d="m479.945 124.138 11.945 6.896v13.794l-11.945 6.896L468 144.828v-13.794Z"/><path stroke="#000" stroke-width=".4799964" fill="#00000002" d="m11.945 144.828 11.945 6.896v13.793l-11.945 6.897L0 165.517v-13.793Z"/><path stroke="#000" stroke-width=".4799964" fill="none" d="m35.945 144.828 11.945 6.896v13.793l-11.945 6.897L24 165.517v-13.793ZM59.945 144.828l11.945 6.896v13.793l-11.945 6.897L48 165.517v-13.793Z"/><path stroke="#000" stroke-width=".4799964" fill="#00000051" d="m83.945 144.828 11.945 6.896v13.793l-11.945 6.897L72 165.517v-13.793Z"/><path stroke="#000" stroke-width=".4799964" fill="none" d="m107.945 144.828 11.945 6.896v13.793l-11.945 6.897L96 165.517v-13.793Z"/><path stroke="#000" stroke-width=".4799964" fill="#00000057" d="m131.945 144.828 11.945 6.896v13.793l-11.945 6.897L120 165.517v-13.793Z"/><path stroke="#000" stroke-width=".4799964" fill="#0000001c" d="m155.945 144.828 11.945 6.896v13.793l-11.945 6.897L144 165.517v-13.793Z"/><path stroke="#000" stroke-width=".4799964" fill="none" d="m179.945 144.828 11.945 6.896v13.793l-11.945 6.897L168 165.517v-13.793ZM203.945 144.828l11.945 6.896v13.793l-11.945 6.897L192 165.517v-13.793ZM227.945 144.828l11.945 6.896v13.793l-11.945 6.897L216 165.517v-13.793ZM251.945 144.828l11.945 6.896v13.793l-11.945 6.897L240 165.517v-13.793Z"/><path stroke="#000" stroke-width=".4799964" fill="#00000066" d="m275.945 144.828 11.945 6.896v13.793l-11.945 6.897L264 165.517v-13.793Z"/><path stroke="#000" stroke-width=".4799964" fill="#00000065" d="m299.945 144.828 11.945 6.896v13.793l-11.945 6.897L288 165.517v-13.793Z"/><path stroke="#000" stroke-width=".4799964" fill="none" d="m323.945 144.828 11.945 6.896v13.793l-11.945 6.897L312 165.517v-13.793ZM347.945 144.828l11.945 6.896v13.793l-11.945 6.897L336 165.517v-13.793ZM371.945 144.828l11.945 6.896v13.793l-11.945 6.897L360 165.517v-13.793ZM395.945 144.828l11.945 6.896v13.793l-11.945 6.897L384 165.517v-13.793ZM419.945 144.828l11.945 6.896v13.793l-11.945 6.897L408 165.517v-13.793ZM443.945 144.828l11.945 6.896v13.793l-11.945 6.897L432 165.517v-13.793ZM467.945 144.828l11.945 6.896v13.793l-11.945 6.897L456 165.517v-13.793ZM23.945 165.517l11.945 6.897v13.793l-11.945 6.896L12 186.207v-13.793ZM47.945 165.517l11.945 6.897v13.793l-11.945 6.896L36 186.207v-13.793ZM71.945 165.517l11.945 6.897v13.793l-11.945 6.896L60 186.207v-13.793ZM95.945 165.517l11.945 6.897v13.793l-11.945 6.896L84 186.207v-13.793ZM119.945 165.517l11.945 6.897v13.793l-11.945 6.896L108 186.207v-13.793ZM143.945 165.517l11.945 6.897v13.793l-11.945 6.896L132 186.207v-13.793ZM167.945 165.517l11.945 6.897v13.793l-11.945 6.896L156 186.207v-13.793ZM191.945 165.517l11.945 6.897v13.793l-11.945 6.896L180 186.207v-13.793Z"/><path stroke="#000" stroke-width=".4799964" fill="#000000ef" d="m215.945 165.517 11.945 6.897v13.793l-11.945 6.896L204 186.207v-13.793Z"/><path stroke="#000" stroke-width=".4799964" fill="#000000d0" d="m239.945 165.517 11.945 6.897v13.793l-11.945 6.896L228 186.207v-13.793Z"/><path stroke="#000" stroke-width=".4799964" fill="none" d="m263.945 165.517 11.945 6.897v13.793l-11.945 6.896L252 186.207v-13.793Z"/><path stroke="#000" stroke-width=".4799964" fill="#0000009b" d="m287.945 165.517 11.945 6.897v13.793l-11.945 6.896L276 186.207v-13.793Z"/><path stroke="#000" stroke-width=".4799964" fill="none" d="m311.945 165.517 11.945 6.897v13.793l-11.945 6.896L300 186.207v-13.793ZM335.945 165.517l11.945 6.897v13.793l-11.945 6.896L324 186.207v-13.793ZM359.945 165.517l11.945 6.897v13.793l-11.945 6.896L348 186.207v-13.793ZM383.945 165.517l11.945 6.897v13.793l-11.945 6.896L372 186.207v-13.793ZM407.945 165.517l11.945 6.897v13.793l-11.945 6.896L396 186.207v-13.793ZM431.945 165.517l11.945 6.897v13.793l-11.945 6.896L420 186.207v-13.793ZM455.945 165.517l11.945 6.897v13.793l-11.945 6.896L444 186.207v-13.793ZM479.945 165.517l11.945 6.897v13.793l-11.945 6.896L468 186.207v-13.793ZM11.945 186.207l11.945 6.896v13.794l-11.945 6.896L0 206.897v-13.794Z"/><path stroke="#000" stroke-width=".4799964" fill="#00000006" d="m35.945 186.207 11.945 6.896v13.794l-11.945 6.896L24 206.897v-13.794Z"/><path stroke="#000" stroke-width=".4799964" fill="none" d="m59.945 186.207 11.945 6.896v13.794l-11.945 6.896L48 206.897v-13.794ZM83.945 186.207l11.945 6.896v13.794l-11.945 6.896L72 206.897v-13.794Z"/><path stroke="#000" stroke-width=".4799964" fill="#00000096" d="m107.945 186.207 11.945 6.896v13.794l-11.945 6.896L96 206.897v-13.794Z"/><path stroke="#000" stroke-width=".4799964" fill="none" d="m131.945 186.207 11.945 6.896v13.794l-11.945 6.896L120 206.897v-13.794ZM155.945 186.207l11.945 6.896v13.794l-11.945 6.896L144 206.897v-13.794ZM179.945 186.207l11.945 6.896v13.794l-11.945 6.896L168 206.897v-13.794ZM203.945 186.207l11.945 6.896v13.794l-11.945 6.896L192 206.897v-13.794ZM227.945 186.207l11.945 6.896v13.794l-11.945 6.896L216 206.897v-13.794ZM251.945 186.207l11.945 6.896v13.794l-11.945 6.896L240 206.897v-13.794Z"/><path stroke="#000" stroke-width=".4799964" fill="#000000f3" d="m275.945 186.207 11.945 6.896v13.794l-11.945 6.896L264 206.897v-13.794Z"/><path stroke="#000" stroke-width=".4799964" fill="#0000006a" d="m299.945 186.207 11.945 6.896v13.794l-11.945 6.896L288 206.897v-13.794Z"/><path stroke="#000" stroke-width=".4799964" fill="#0000003e" d="m323.945 186.207 11.945 6.896v13.794l-11.945 6.896L312 206.897v-13.794Z"/><path stroke="#000" stroke-width=".4799964" fill="#00000043" d="m347.945 186.207 11.945 6.896v13.794l-11.945 6.896L336 206.897v-13.794Z"/><path stroke="#000" stroke-width=".4799964" fill="none" d="m371.945 186.207 11.945 6.896v13.794l-11.945 6.896L360 206.897v-13.794ZM395.945 186.207l11.945 6.896v13.794l-11.945 6.896L384 206.897v-13.794ZM419.945 186.207l11.945 6.896v13.794l-11.945 6.896L408 206.897v-13.794Z"/><path stroke="#000" stroke-width=".4799964" fill="#000000ae" d="m443.945 186.207 11.945 6.896v13.794l-11.945 6.896L432 206.897v-13.794Z"/><path stroke="#000" stroke-width=".4799964" fill="none" d="m467.945 186.207 11.945 6.896v13.794l-11.945 6.896L456 206.897v-13.794ZM23.945 206.897l11.945 6.896v13.793l-11.945 6.897L12 227.586v-13.793ZM47.945 206.897l11.945 6.896v13.793l-11.945 6.897L36 227.586v-13.793Z"/><path stroke="#000" stroke-width=".4799964" fill="#00000065" d="m71.945 206.897 11.945 6.896v13.793l-11.945 6.897L60 227.586v-13.793Z"/><path stroke="#000" stroke-width=".4799964" fill="none" d="m95.945 206.897 11.945 6.896v13.793l-11.945 6.897L84 227.586v-13.793Z"/><path stroke="#000" stroke-width=".4799964" fill="#00000000" d="m119.945 206.897 11.945 6.896v13.793l-11.945 6.897L108 227.586v-13.793Z"/><path stroke="#000" stroke-width=".4799964" fill="#0000003e" d="m143.945 206.897 11.945 6.896v13.793l-11.945 6.897L132 227.586v-13.793Z"/><path stroke="#000" stroke-width=".4799964" fill="none" d="m167.945 206.897 11.945 6.896v13.793l-11.945 6.897L156 227.586v-13.793ZM191.945 206.897l11.945 6.896v13.793l-11.945 6.897L180 227.586v-13.793ZM215.945 206.897l11.945 6.896v13.793l-11.945 6.897L204 227.586v-13.793Z"/><path stroke="#000" stroke-width=".4799964" fill="#00000086" d="m239.945 206.897 11.945 6.896v13.793l-11.945 6.897L228 227.586v-13.793Z"/><path stroke="#000" stroke-width=".4799964" fill="none" d="m263.945 206.897 11.945 6.896v13.793l-11.945 6.897L252 227.586v-13.793Z"/><path stroke="#000" stroke-width=".4799964" fill="#00000003" d="m287.945 206.897 11.945 6.896v13.793l-11.945 6.897L276 227.586v-13.793Z"/><path stroke="#000" stroke-width=".4799964" fill="none" d="m311.945 206.897 11.945 6.896v13.793l-11.945 6.897L300 227.586v-13.793ZM335.945 206.897l11.945 6.896v13.793l-11.945 6.897L324 227.586v-13.793Z"/><path stroke="#000" stroke-width=".4799964" fill="#0000001b" d="m359.945 206.897 11.945 6.896v13.793l-11.945 6.897L348 227.586v-13.793Z"/><path stroke="#000" stroke-width=".4799964" fill="none" d="m383.945 206.897 11.945 6.896v13.793l-11.945 6.897L372 227.586v-13.793ZM407.945 206.897l11.945 6.896v13.793l-11.945 6.897L396 227.586v-13.793ZM431.945 206.897l11.945 6.896v13.793l-11.945 6.897L420 227.586v-13.793Z"/><path stroke="#000" stroke-width=".4799964" fill="#0000000c" d="m455.945 206.897 11.945 6.896v13.793l-11.945 6.897L444 227.586v-13.793Z"/><path stroke="#000" stroke-width=".4799964" fill="none" d="m479.945 206.897 11.945 6.896v13.793l-11.945 6.897L468 227.586v-13.793ZM11.945 227.586l11.945 6.897v13.793l-11.945 6.896L0 248.276v-13.793ZM35.945 227.586l11.945 6.897v13.793l-11.945 6.896L24 248.276v-13.793Z"/><path stroke="#000" stroke-width=".4799964" fill="#00000072" d="m59.945 227.586 11.945 6.897v13.793l-11.945 6.896L48 248.276v-13.793Z"/><path stroke="#000" stroke-width=".4799964" fill="none" d="m83.945 227.586 11.945 6.897v13.793l-11.945 6.896L72 248.276v-13.793Z"/><path stroke="#000" stroke-width=".4799964" fill="#00000038" d="m107.945 227.586 11.945 6.897v13.793l-11.945 6.896L96 248.276v-13.793Z"/><path stroke="#000" stroke-width=".4799964" fill="none" d="m131.945 227.586 11.945 6.897v13.793l-11.945 6.896L120 248.276v-13.793ZM155.945 227.586l11.945 6.897v13.793l-11.945 6.896L144 248.276v-13.793Z"/><path stroke="#000" stroke-width=".4799964" fill="#00000022" d="m179.945 227.586 11.945 6.897v13.793l-11.945 6.896L168 248.276v-13.793Z"/><path stroke="#000" stroke-width=".4799964" fill="#0000008a" d="m203.945 227.586 11.945 6.897v13.793l-11.945 6.896L192 248.276v-13.793Z"/><path stroke="#000" stroke-width=".4799964" fill="none" d="m227.945 227.586 11.945 6.897v13.793l-11.945 6.896L216 248.276v-13.793ZM251.945 227.586l11.945 6.897v13.793l-11.945 6.896L240 248.276v-13.793ZM275.945 227.586l11.945 6.897v13.793l-11.945 6.896L264 248.276v-13.793ZM299.945 227.586l11.945 6.897v13.793l-11.945 6.896L288 248.276v-13.793ZM323.945 227.586l11.945 6.897v13.793l-11.945 6.896L312 248.276v-13.793ZM347.945 227.586l11.945 6.897v13.793l-11.945 6.896L336 248.276v-13.793ZM371.945 227.586l11.945 6.897v13.793l-11.945 6.896L360 248.276v-13.793ZM395.945 227.586l11.945 6.897v13.793l-11.945 6.896L384 248.276v-13.793ZM419.945 227.586l11.945 6.897v13.793l-11.945 6.896L408 248.276v-13.793ZM443.945 227.586l11.945 6.897v13.793l-11.945 6.896L432 248.276v-13.793ZM467.945 227.586l11.945 6.897v13.793l-11.945 6.896L456 248.276v-13.793Z"/><path stroke="#000" stroke-width=".4799964" fill="#00000072" d="m23.945 248.276 11.945 6.896v13.794l-11.945 6.896L12 268.966v-13.794Z"/><path stroke="#000" stroke-width=".4799964" fill="none" d="m47.945 248.276 11.945 6.896v13.794l-11.945 6.896L36 268.966v-13.794Z"/><path stroke="#000" stroke-width=".4799964" fill="#000000c3" d="m71.945 248.276 11.945 6.896v13.794l-11.945 6.896L60 268.966v-13.794Z"/><path stroke="#000" stroke-width=".4799964" fill="none" d="m95.945 248.276 11.945 6.896v13.794l-11.945 6.896L84 268.966v-13.794ZM119.945 248.276l11.945 6.896v13.794l-11.945 6.896L108 268.966v-13.794ZM143.945 248.276l11.945 6.896v13.794l-11.945 6.896L132 268.966v-13.794ZM167.945 248.276l11.945 6.896v13.794l-11.945 6.896L156 268.966v-13.794ZM191.945 248.276l11.945 6.896v13.794l-11.945 6.896L180 268.966v-13.794ZM215.945 248.276l11.945 6.896v13.794l-11.945 6.896L204 268.966v-13.794Z"/><path stroke="#000" stroke-width=".4799964" fill="#00000088" d="m239.945 248.276 11.945 6.896v13.794l-11.945 6.896L228 268.966v-13.794Z"/><path stroke="#000" stroke-width=".4799964" fill="none" d="m263.945 248.276 11.945 6.896v13.794l-11.945 6.896L252 268.966v-13.794ZM287.945 248.276l11.945 6.896v13.794l-11.945 6.896L276 268.966v-13.794ZM311.945 248.276l11.945 6.896v13.794l-11.945 6.896L300 268.966v-13.794ZM335.945 248.276l11.945 6.896v13.794l-11.945 6.896L324 268.966v-13.794Z"/><path stroke="#000" stroke-width=".4799964" fill="#00000074" d="m359.945 248.276 11.945 6.896v13.794l-11.945 6.896L348 268.966v-13.794Z"/><path stroke="#000" stroke-width=".4799964" fill="none" d="m383.945 248.276 11.945 6.896v13.794l-11.945 6.896L372 268.966v-13.794ZM407.945 248.276l11.945 6.896v13.794l-11.945 6.896L396 268.966v-13.794ZM431.945 248.276l11.945 6.896v13.794l-11.945 6.896L420 268.966v-13.794ZM455.945 248.276l11.945 6.896v13.794l-11.945 6.896L444 268.966v-13.794Z"/><path stroke="#000" stroke-width=".4799964" fill="#000000e1" d="m479.945 248.276 11.945 6.896v13.794l-11.945 6.896L468 268.966v-13.794Z"/><path stroke="#000" stroke-width=".4799964" fill="none" d="m11.945 268.966 11.945 6.896v13.793l-11.945 6.897L0 289.655v-13.793ZM35.945 268.966l11.945 6.896v13.793l-11.945 6.897L24 289.655v-13.793ZM59.945 268.966l11.945 6.896v13.793l-11.945 6.897L48 289.655v-13.793ZM83.945 268.966l11.945 6.896v13.793l-11.945 6.897L72 289.655v-13.793ZM107.945 268.966l11.945 6.896v13.793l-11.945 6.897L96 289.655v-13.793ZM131.945 268.966l11.945 6.896v13.793l-11.945 6.897L120 289.655v-13.793ZM155.945 268.966l11.945 6.896v13.793l-11.945 6.897L144 289.655v-13.793ZM179.945 268.966l11.945 6.896v13.793l-11.945 6.897L168 289.655v-13.793Z"/><path stroke="#000" stroke-width=".4799964" fill="#000000ec" d="m203.945 268.966 11.945 6.896v13.793l-11.945 6.897L192 289.655v-13.793Z"/><path stroke="#000" stroke-width=".4799964" fill="#000000c5" d="m227.945 268.966 11.945 6.896v13.793l-11.945 6.897L216 289.655v-13.793Z"/><path stroke="#000" stroke-width=".4799964" fill="none" d="m251.945 268.966 11.945 6.896v13.793l-11.945 6.897L240 289.655v-13.793ZM275.945 268.966l11.945 6.896v13.793l-11.945 6.897L264 289.655v-13.793Z"/><path stroke="#000" stroke-width=".4799964" fill="#00000049" d="m299.945 268.966 11.945 6.896v13.793l-11.945 6.897L288 289.655v-13.793Z"/><path stroke="#000" stroke-width=".4799964" fill="#00000039" d="m323.945 268.966 11.945 6.896v13.793l-11.945 6.897L312 289.655v-13.793Z"/><path stroke="#000" stroke-width=".4799964" fill="none" d="m347.945 268.966 11.945 6.896v13.793l-11.945 6.897L336 289.655v-13.793ZM371.945 268.966l11.945 6.896v13.793l-11.945 6.897L360 289.655v-13.793ZM395.945 268.966l11.945 6.896v13.793l-11.945 6.897L384 289.655v-13.793ZM419.945 268.966l11.945 6.896v13.793l-11.945 6.897L408 289.655v-13.793ZM443.945 268.966l11.945 6.896v13.793l-11.945 6.897L432 289.655v-13.793Z"/><path stroke="#000" stroke-width=".4799964" fill="#0000007e" d="m467.945 268.966 11.945 6.896v13.793l-11.945 6.897L456 289.655v-13.793Z"/><path stroke="#000" stroke-width=".4799964" fill="#000000fe" d="m23.945 289.655 11.945 6.897v13.793l-11.945 6.896L12 310.345v-13.793Z"/><path stroke="#000" stroke-width=".4799964" fill="none" d="m47.945 289.655 11.945 6.897v13.793l-11.945 6.896L36 310.345v-13.793ZM71.945 289.655l11.945 6.897v13.793l-11.945 6.896L60 310.345v-13.793ZM95.945 289.655l11.945 6.897v13.793l-11.945 6.896L84 310.345v-13.793Z"/><path stroke="#000" stroke-width=".4799964" fill="#000000b6" d="m119.945 289.655 11.945 6.897v13.793l-11.945 6.896L108 310.345v-13.793Z"/><path stroke="#000" stroke-width=".4799964" fill="none" d="m143.945 289.655 11.945 6.897v13.793l-11.945 6.896L132 310.345v-13.793ZM167.945 289.655l11.945 6.897v13.793l-11.945 6.896L156 310.345v-13.793ZM191.945 289.655l11.945 6.897v13.793l-11.945 6.896L180 310.345v-13.793ZM215.945 289.655l11.945 6.897v13.793l-11.945 6.896L204 310.345v-13.793Z"/><path stroke="#000" stroke-width=".4799964" fill="#00000004" d="m239.945 289.655 11.945 6.897v13.793l-11.945 6.896L228 310.345v-13.793Z"/><path stroke="#000" stroke-width=".4799964" fill="none" d="m263.945 289.655 11.945 6.897v13.793l-11.945 6.896L252 310.345v-13.793ZM287.945 289.655l11.945 6.897v13.793l-11.945 6.896L276 310.345v-13.793Z"/><path stroke="#000" stroke-width=".4799964" fill="#000000ba" d="m311.945 289.655 11.945 6.897v13.793l-11.945 6.896L300 310.345v-13.793Z"/><path stroke="#000" stroke-width=".4799964" fill="none" d="m335.945 289.655 11.945 6.897v13.793l-11.945 6.896L324 310.345v-13.793Z"/><path stroke="#000" stroke-width=".4799964" fill="#00000062" d="m359.945 289.655 11.945 6.897v13.793l-11.945 6.896L348 310.345v-13.793Z"/><path stroke="#000" stroke-width=".4799964" fill="none" d="m383.945 289.655 11.945 6.897v13.793l-11.945 6.896L372 310.345v-13.793Z"/><path stroke="#000" stroke-width=".4799964" fill="#00000025" d="m407.945 289.655 11.945 6.897v13.793l-11.945 6.896L396 310.345v-13.793Z"/><path stroke="#000" stroke-width=".4799964" fill="none" d="m431.945 289.655 11.945 6.897v13.793l-11.945 6.896L420 310.345v-13.793Z"/><path stroke="#000" stroke-width=".4799964" fill="#0000004b" d="m455.945 289.655 11.945 6.897v13.793l-11.945 6.896L444 310.345v-13.793Z"/><path stroke="#000" stroke-width=".4799964" fill="none" d="m479.945 289.655 11.945 6.897v13.793l-11.945 6.896L468 310.345v-13.793Z"/><path stroke="#000" stroke-width=".4799964" fill="#0000008e" d="m11.945 310.345 11.945 6.896v13.793l-11.945 6.897L0 331.034v-13.793Z"/><path stroke="#000" stroke-width=".4799964" fill="none" d="m35.945 310.345 11.945 6.896v13.793l-11.945 6.897L24 331.034v-13.793ZM59.945 310.345l11.945 6.896v13.793l-11.945 6.897L48 331.034v-13.793ZM83.945 310.345l11.945 6.896v13.793l-11.945 6.897L72 331.034v-13.793ZM107.945 310.345l11.945 6.896v13.793l-11.945 6.897L96 331.034v-13.793ZM131.945 310.345l11.945 6.896v13.793l-11.945 6.897L120 331.034v-13.793Z"/><path stroke="#000" stroke-width=".4799964" fill="#00000086" d="m155.945 310.345 11.945 6.896v13.793l-11.945 6.897L144 331.034v-13.793Z"/><path stroke="#000" stroke-width=".4799964" fill="#00000003" d="m179.945 310.345 11.945 6.896v13.793l-11.945 6.897L168 331.034v-13.793Z"/><path stroke="#000" stroke-width=".4799964" fill="none" d="m203.945 310.345 11.945 6.896v13.793l-11.945 6.897L192 331.034v-13.793ZM227.945 310.345l11.945 6.896v13.793l-11.945 6.897L216 331.034v-13.793ZM251.945 310.345l11.945 6.896v13.793l-11.945 6.897L240 331.034v-13.793Z"/><path stroke="#000" stroke-width=".4799964" fill="#00000082" d="m275.945 310.345 11.945 6.896v13.793l-11.945 6.897L264 331.034v-13.793Z"/><path stroke="#000" stroke-width=".4799964" fill="none" d="m299.945 310.345 11.945 6.896v13.793l-11.945 6.897L288 331.034v-13.793ZM323.945 310.345l11.945 6.896v13.793l-11.945 6.897L312 331.034v-13.793Z"/><path stroke="#000" stroke-width=".4799964" fill="#0000001c" d="m347.945 310.345 11.945 6.896v13.793l-11.945 6.897L336 331.034v-13.793Z"/><path stroke="#000" stroke-width=".4799964" fill="none" d="m371.945 310.345 11.945 6.896v13.793l-11.945 6.897L360 331.034v-13.793Z"/><path stroke="#000" stroke-width=".4799964" fill="#00000062" d="m395.945 310.345 11.945 6.896v13.793l-11.945 6.897L384 331.034v-13.793Z"/><path stroke="#000" stroke-width=".4799964" fill="none" d="m419.945 310.345 11.945 6.896v13.793l-11.945 6.897L408 331.034v-13.793ZM443.945 310.345l11.945 6.896v13.793l-11.945 6.897L432 331.034v-13.793ZM467.945 310.345l11.945 6.896v13.793l-11.945 6.897L456 331.034v-13.793ZM23.945 331.034l11.945 6.897v13.793l-11.945 6.897L12 351.724v-13.793ZM47.945 331.034l11.945 6.897v13.793l-11.945 6.897L36 351.724v-13.793ZM71.945 331.034l11.945 6.897v13.793l-11.945 6.897L60 351.724v-13.793ZM95.945 331.034l11.945 6.897v13.793l-11.945 6.897L84 351.724v-13.793ZM119.945 331.034l11.945 6.897v13.793l-11.945 6.897L108 351.724v-13.793Z"/><path stroke="#000" stroke-width=".4799964" fill="#000000d0" d="m143.945 331.034 11.945 6.897v13.793l-11.945 6.897L132 351.724v-13.793Z"/><path stroke="#000" stroke-width=".4799964" fill="#00000089" d="m167.945 331.034 11.945 6.897v13.793l-11.945 6.897L156 351.724v-13.793Z"/><path stroke="#000" stroke-width=".4799964" fill="none" d="m191.945 331.034 11.945 6.897v13.793l-11.945 6.897L180 351.724v-13.793ZM215.945 331.034l11.945 6.897v13.793l-11.945 6.897L204 351.724v-13.793ZM239.945 331.034l11.945 6.897v13.793l-11.945 6.897L228 351.724v-13.793ZM263.945 331.034l11.945 6.897v13.793l-11.945 6.897L252 351.724v-13.793ZM287.945 331.034l11.945 6.897v13.793l-11.945 6.897L276 351.724v-13.793Z"/><path stroke="#000" stroke-width=".4799964" fill="#00000020" d="m311.945 331.034 11.945 6.897v13.793l-11.945 6.897L300 351.724v-13.793Z"/><path stroke="#000" stroke-width=".4799964" fill="none" d="m335.945 331.034 11.945 6.897v13.793l-11.945 6.897L324 351.724v-13.793Z"/><path stroke="#000" stroke-width=".4799964" fill="#000000a4" d="m359.945 331.034 11.945 6.897v13.793l-11.945 6.897L348 351.724v-13.793Z"/><path stroke="#000" stroke-width=".4799964" fill="none" d="m383.945 331.034 11.945 6.897v13.793l-11.945 6.897L372 351.724v-13.793ZM407.945 331.034l11.945 6.897v13.793l-11.945 6.897L396 351.724v-13.793ZM431.945 331.034l11.945 6.897v13.793l-11.945 6.897L420 351.724v-13.793ZM455.945 331.034l11.945 6.897v13.793l-11.945 6.897L444 351.724v-13.793Z"/><path stroke="#000" stroke-width=".4799964" fill="#00000043" d="m479.945 331.034 11.945 6.897v13.793l-11.945 6.897L468 351.724v-13.793Z"/><path stroke="#000" stroke-width=".4799964" fill="none" d="m11.945 351.724 11.945 6.897v13.793l-11.945 6.896L0 372.414V358.62Z"/><path stroke="#000" stroke-width=".4799964" fill="#000000ae" d="m35.945 351.724 11.945 6.897v13.793l-11.945 6.896L24 372.414V358.62Z"/><path stroke="#000" stroke-width=".4799964" fill="#00000036" d="m59.945 351.724 11.945 6.897v13.793l-11.945 6.896L48 372.414V358.62Z"/><path stroke="#000" stroke-width=".4799964" fill="#000000f4" d="m83.945 351.724 11.945 6.897v13.793l-11.945 6.896L72 372.414V358.62Z"/><path stroke="#000" stroke-width=".4799964" fill="none" d="m107.945 351.724 11.945 6.897v13.793l-11.945 6.896L96 372.414V358.62ZM131.945 351.724l11.945 6.897v13.793l-11.945 6.896L120 372.414V358.62ZM155.945 351.724l11.945 6.897v13.793l-11.945 6.896L144 372.414V358.62ZM179.945 351.724l11.945 6.897v13.793l-11.945 6.896L168 372.414V358.62ZM203.945 351.724l11.945 6.897v13.793l-11.945 6.896L192 372.414V358.62Z"/><path stroke="#000" stroke-width=".4799964" fill="#00000046" d="m227.945 351.724 11.945 6.897v13.793l-11.945 6.896L216 372.414V358.62Z"/><path stroke="#000" stroke-width=".4799964" fill="#000000c4" d="m251.945 351.724 11.945 6.897v13.793l-11.945 6.896L240 372.414V358.62Z"/><path stroke="#000" stroke-width=".4799964" fill="none" d="m275.945 351.724 11.945 6.897v13.793l-11.945 6.896L264 372.414V358.62Z"/><path stroke="#000" stroke-width=".4799964" fill="#00000019" d="m299.945 351.724 11.945 6.897v13.793l-11.945 6.896L288 372.414V358.62Z"/><path stroke="#000" stroke-width=".4799964" fill="none" d="m323.945 351.724 11.945 6.897v13.793l-11.945 6.896L312 372.414V358.62ZM347.945 351.724l11.945 6.897v13.793l-11.945 6.896L336 372.414V358.62ZM371.945 351.724l11.945 6.897v13.793l-11.945 6.896L360 372.414V358.62ZM395.945 351.724l11.945 6.897v13.793l-11.945 6.896L384 372.414V358.62ZM419.945 351.724l11.945 6.897v13.793l-11.945 6.896L408 372.414V358.62ZM443.945 351.724l11.945 6.897v13.793l-11.945 6.896L432 372.414V358.62ZM467.945 351.724l11.945 6.897v13.793l-11.945 6.896L456 372.414V358.62Z"/><path stroke="#000" stroke-width=".4799964" fill="#000000ae" d="m23.945 372.414 11.945 6.896v13.793L23.945 400 12 393.103V379.31Z"/><path stroke="#000" stroke-width=".4799964" fill="none" d="m47.945 372.414 11.945 6.896v13.793L47.945 400 36 393.103V379.31ZM71.945 372.414l11.945 6.896v13.793L71.945 400 60 393.103V379.31ZM95.945 372.414l11.945 6.896v13.793L95.945 400 84 393.103V379.31ZM119.945 372.414l11.945 6.896v13.793L119.945 400 108 393.103V379.31ZM143.945 372.414l11.945 6.896v13.793L143.945 400 132 393.103V379.31ZM167.945 372.414l11.945 6.896v13.793L167.945 400 156 393.103V379.31ZM191.945 372.414l11.945 6.896v13.793L191.945 400 180 393.103V379.31ZM215.945 372.414l11.945 6.896v13.793L215.945 400 204 393.103V379.31ZM239.945 372.414l11.945 6.896v13.793L239.945 400 228 393.103V379.31ZM263.945 372.414l11.945 6.896v13.793L263.945 400 252 393.103V379.31Z"/><path stroke="#000" stroke-width=".4799964" fill="#000000ab" d="m287.945 372.414 11.945 6.896v13.793L287.945 400 276 393.103V379.31Z"/><path stroke="#000" stroke-width=".4799964" fill="none" d="m311.945 372.414 11.945 6.896v13.793L311.945 400 300 393.103V379.31ZM335.945 372.414l11.945 6.896v13.793L335.945 400 324 393.103V379.31ZM359.945 372.414l11.945 6.896v13.793L359.945 400 348 393.103V379.31ZM383.945 372.414l11.945 6.896v13.793L383.945 400 372 393.103V379.31ZM407.945 372.414l11.945 6.896v13.793L407.945 400 396 393.103V379.31Z"/><path stroke="#000" stroke-width=".4799964" fill="#0000006f" d="m431.945 372.414 11.945 6.896v13.793L431.945 400 420 393.103V379.31Z"/><path stroke="#000" stroke-width=".4799964" fill="#00000027" d="m455.945 372.414 11.945 6.896v13.793L455.945 400 444 393.103V379.31Z"/><path stroke="#000" stroke-width=".4799964" fill="none" d="m479.945 372.414 11.945 6.896v13.793L479.945 400 468 393.103V379.31Z"/><path stroke="#000" stroke-width=".4799964" fill="#000000e1" d="M11.945 393.103 23.89 400v13.793l-11.945 6.897L0 413.793V400Z"/><path stroke="#000" stroke-width=".4799964" fill="#000000ce" d="M35.945 393.103 47.89 400v13.793l-11.945 6.897L24 413.793V400Z"/><path stroke="#000" stroke-width=".4799964" fill="#000000a9" d="M59.945 393.103 71.89 400v13.793l-11.945 6.897L48 413.793V400Z"/><path stroke="#000" stroke-width=".4799964" fill="none" d="M83.945 393.103 95.89 400v13.793l-11.945 6.897L72 413.793V400ZM107.945 393.103 119.89 400v13.793l-11.945 6.897L96 413.793V400Z"/><path stroke="#000" stroke-width=".4799964" fill="#00000072" d="M131.945 393.103 143.89 400v13.793l-11.945 6.897L120 413.793V400Z"/><path stroke="#000" stroke-width=".4799964" fill="none" d="M155.945 393.103 167.89 400v13.793l-11.945 6.897L144 413.793V400ZM179.945 393.103 191.89 400v13.793l-11.945 6.897L168 413.793V400ZM203.945 393.103 215.89 400v13.793l-11.945 6.897L192 413.793V400ZM227.945 393.103 239.89 400v13.793l-11.945 6.897L216 413.793V400ZM251.945 393.103 263.89 400v13.793l-11.945 6.897L240 413.793V400ZM275.945 393.103 287.89 400v13.793l-11.945 6.897L264 413.793V400Z"/><path stroke="#000" stroke-width=".4799964" fill="#0000002c" d="M299.945 393.103 311.89 400v13.793l-11.945 6.897L288 413.793V400Z"/><path stroke="#000" stroke-width=".4799964" fill="#000000b5" d="M323.945 393.103 335.89 400v13.793l-11.945 6.897L312 413.793V400Z"/><path stroke="#000" stroke-width=".4799964" fill="none" d="M347.945 393.103 359.89 400v13.793l-11.945 6.897L336 413.793V400Z"/><path stroke="#000" stroke-width=".4799964" fill="#000000a9" d="M371.945 393.103 383.89 400v13.793l-11.945 6.897L360 413.793V400Z"/><path stroke="#000" stroke-width=".4799964" fill="none" d="M395.945 393.103 407.89 400v13.793l-11.945 6.897L384 413.793V400ZM419.945 393.103 431.89 400v13.793l-11.945 6.897L408 413.793V400ZM443.945 393.103 455.89 400v13.793l-11.945 6.897L432 413.793V400ZM467.945 393.103 479.89 400v13.793l-11.945 6.897L456 413.793V400ZM23.945 413.793l11.945 6.897v13.793l-11.945 6.896L12 434.483V420.69Z"/><path stroke="#000" stroke-width=".4799964" fill="#000000e2" d="m47.945 413.793 11.945 6.897v13.793l-11.945 6.896L36 434.483V420.69Z"/><path stroke="#000" stroke-width=".4799964" fill="#000000eb" d="m71.945 413.793 11.945 6.897v13.793l-11.945 6.896L60 434.483V420.69Z"/><path stroke="#000" stroke-width=".4799964" fill="none" d="m95.945 413.793 11.945 6.897v13.793l-11.945 6.896L84 434.483V420.69ZM119.945 413.793l11.945 6.897v13.793l-11.945 6.896L108 434.483V420.69ZM143.945 413.793l11.945 6.897v13.793l-11.945 6.896L132 434.483V420.69ZM167.945 413.793l11.945 6.897v13.793l-11.945 6.896L156 434.483V420.69ZM191.945 413.793l11.945 6.897v13.793l-11.945 6.896L180 434.483V420.69ZM215.945 413.793l11.945 6.897v13.793l-11.945 6.896L204 434.483V420.69ZM239.945 413.793l11.945 6.897v13.793l-11.945 6.896L228 434.483V420.69ZM263.945 413.793l11.945 6.897v13.793l-11.945 6.896L252 434.483V420.69Z"/><path stroke="#000" stroke-width=".4799964" fill="#00000055" d="m287.945 413.793 11.945 6.897v13.793l-11.945 6.896L276 434.483V420.69Z"/><path stroke="#000" stroke-width=".4799964" fill="none" d="m311.945 413.793 11.945 6.897v13.793l-11.945 6.896L300 434.483V420.69ZM335.945 413.793l11.945 6.897v13.793l-11.945 6.896L324 434.483V420.69ZM359.945 413.793l11.945 6.897v13.793l-11.945 6.896L348 434.483V420.69ZM383.945 413.793l11.945 6.897v13.793l-11.945 6.896L372 434.483V420.69Z"/><path stroke="#000" stroke-width=".4799964" fill="#0000007a" d="m407.945 413.793 11.945 6.897v13.793l-11.945 6.896L396 434.483V420.69Z"/><path stroke="#000" stroke-width=".4799964" fill="#0000004f" d="m431.945 413.793 11.945 6.897v13.793l-11.945 6.896L420 434.483V420.69Z"/><path stroke="#000" stroke-width=".4799964" fill="none" d="m455.945 413.793 11.945 6.897v13.793l-11.945 6.896L444 434.483V420.69ZM479.945 413.793l11.945 6.897v13.793l-11.945 6.896L468 434.483V420.69ZM11.945 434.483l11.945 6.896v13.793l-11.945 6.897L0 455.172V441.38ZM35.945 434.483l11.945 6.896v13.793l-11.945 6.897L24 455.172V441.38ZM59.945 434.483l11.945 6.896v13.793l-11.945 6.897L48 455.172V441.38Z"/><path stroke="#000" stroke-width=".4799964" fill="#000000d3" d="m83.945 434.483 11.945 6.896v13.793l-11.945 6.897L72 455.172V441.38Z"/><path stroke="#000" stroke-width=".4799964" fill="none" d="m107.945 434.483 11.945 6.896v13.793l-11.945 6.897L96 455.172V441.38ZM131.945 434.483l11.945 6.896v13.793l-11.945 6.897L120 455.172V441.38ZM155.945 434.483l11.945 6.896v13.793l-11.945 6.897L144 455.172V441.38ZM179.945 434.483l11.945 6.896v13.793l-11.945 6.897L168 455.172V441.38ZM203.945 434.483l11.945 6.896v13.793l-11.945 6.897L192 455.172V441.38ZM227.945 434.483l11.945 6.896v13.793l-11.945 6.897L216 455.172V441.38ZM251.945 434.483l11.945 6.896v13.793l-11.945 6.897L240 455.172V441.38ZM275.945 434.483l11.945 6.896v13.793l-11.945 6.897L264 455.172V441.38ZM299.945 434.483l11.945 6.896v13.793l-11.945 6.897L288 455.172V441.38Z"/><path stroke="#000" stroke-width=".4799964" fill="#0000003b" d="m323.945 434.483 11.945 6.896v13.793l-11.945 6.897L312 455.172V441.38Z"/><path stroke="#000" stroke-width=".4799964" fill="none" d="m347.945 434.483 11.945 6.896v13.793l-11.945 6.897L336 455.172V441.38Z"/><path stroke="#000" stroke-width=".4799964" fill="#0000003d" d="m371.945 434.483 11.945 6.896v13.793l-11.945 6.897L360 455.172V441.38Z"/><path stroke="#000" stroke-width=".4799964" fill="#00000054" d="m395.945 434.483 11.945 6.896v13.793l-11.945 6.897L384 455.172V441.38Z"/><path stroke="#000" stroke-width=".4799964" fill="none" d="m419.945 434.483 11.945 6.896v13.793l-11.945 6.897L408 455.172V441.38ZM443.945 434.483l11.945 6.896v13.793l-11.945 6.897L432 455.172V441.38ZM467.945 434.483l11.945 6.896v13.793l-11.945 6.897L456 455.172V441.38ZM23.945 455.172l11.945 6.897v13.793l-11.945 6.897L12 475.862V462.07ZM47.945 455.172l11.945 6.897v13.793l-11.945 6.897L36 475.862V462.07Z"/><path stroke="#000" stroke-width=".4799964" fill="#000000fd" d="m71.945 455.172 11.945 6.897v13.793l-11.945 6.897L60 475.862V462.07Z"/><path stroke="#000" stroke-width=".4799964" fill="#0000008e" d="m95.945 455.172 11.945 6.897v13.793l-11.945 6.897L84 475.862V462.07Z"/><path stroke="#000" stroke-width=".4799964" fill="#00000043" d="m119.945 455.172 11.945 6.897v13.793l-11.945 6.897L108 475.862V462.07Z"/><path stroke="#000" stroke-width=".4799964" fill="none" d="m143.945 455.172 11.945 6.897v13.793l-11.945 6.897L132 475.862V462.07ZM167.945 455.172l11.945 6.897v13.793l-11.945 6.897L156 475.862V462.07ZM191.945 455.172l11.945 6.897v13.793l-11.945 6.897L180 475.862V462.07Z"/><path stroke="#000" stroke-width=".4799964" fill="#00000045" d="m215.945 455.172 11.945 6.897v13.793l-11.945 6.897L204 475.862V462.07Z"/><path stroke="#000" stroke-width=".4799964" fill="none" d="m239.945 455.172 11.945 6.897v13.793l-11.945 6.897L228 475.862V462.07Z"/><path stroke="#000" stroke-width=".4799964" fill="#000000ba" d="m263.945 455.172 11.945 6.897v13.793l-11.945 6.897L252 475.862V462.07Z"/><path stroke="#000" stroke-width=".4799964" fill="none" d="m287.945 455.172 11.945 6.897v13.793l-11.945 6.897L276 475.862V462.07Z"/><path stroke="#000" stroke-width=".4799964" fill="#000000f8" d="m311.945 455.172 11.945 6.897v13.793l-11.945 6.897L300 475.862V462.07Z"/><path stroke="#000" stroke-width=".4799964" fill="none" d="m335.945 455.172 11.945 6.897v13.793l-11.945 6.897L324 475.862V462.07Z"/><path stroke="#000" stroke-width=".4799964" fill="#00000089" d="m359.945 455.172 11.945 6.897v13.793l-11.945 6.897L348 475.862V462.07Z"/><path stroke="#000" stroke-width=".4799964" fill="#0000005b" d="m383.945 455.172 11.945 6.897v13.793l-11.945 6.897L372 475.862V462.07Z"/><path stroke="#000" stroke-width=".4799964" fill="none" d="m407.945 455.172 11.945 6.897v13.793l-11.945 6.897L396 475.862V462.07ZM431.945 455.172l11.945 6.897v13.793l-11.945 6.897L420 475.862V462.07ZM455.945 455.172l11.945 6.897v13.793l-11.945 6.897L444 475.862V462.07ZM479.945 455.172l11.945 6.897v13.793l-11.945 6.897L468 475.862V462.07ZM11.945 475.862l11.945 6.897v13.793l-11.945 6.896L0 496.552v-13.793ZM35.945 475.862l11.945 6.897v13.793l-11.945 6.896L24 496.552v-13.793ZM59.945 475.862l11.945 6.897v13.793l-11.945 6.896L48 496.552v-13.793Z"/><path stroke="#000" stroke-width=".4799964" fill="#000000c9" d="m83.945 475.862 11.945 6.897v13.793l-11.945 6.896L72 496.552v-13.793Z"/><path stroke="#000" stroke-width=".4799964" fill="none" d="m107.945 475.862 11.945 6.897v13.793l-11.945 6.896L96 496.552v-13.793ZM131.945 475.862l11.945 6.897v13.793l-11.945 6.896L120 496.552v-13.793Z"/><path stroke="#000" stroke-width=".4799964" fill="#000000a9" d="m155.945 475.862 11.945 6.897v13.793l-11.945 6.896L144 496.552v-13.793Z"/><path stroke="#000" stroke-width=".4799964" fill="none" d="m179.945 475.862 11.945 6.897v13.793l-11.945 6.896L168 496.552v-13.793ZM203.945 475.862l11.945 6.897v13.793l-11.945 6.896L192 496.552v-13.793Z"/><path stroke="#000" stroke-width=".4799964" fill="#000000f2" d="m227.945 475.862 11.945 6.897v13.793l-11.945 6.896L216 496.552v-13.793Z"/><path stroke="#000" stroke-width=".4799964" fill="none" d="m251.945 475.862 11.945 6.897v13.793l-11.945 6.896L240 496.552v-13.793ZM275.945 475.862l11.945 6.897v13.793l-11.945 6.896L264 496.552v-13.793Z"/><path stroke="#000" stroke-width=".4799964" fill="#00000053" d="m299.945 475.862 11.945 6.897v13.793l-11.945 6.896L288 496.552v-13.793Z"/><path stroke="#000" stroke-width=".4799964" fill="none" d="m323.945 475.862 11.945 6.897v13.793l-11.945 6.896L312 496.552v-13.793Z"/><path stroke="#000" stroke-width=".4799964" fill="#000000f4" d="m347.945 475.862 11.945 6.897v13.793l-11.945 6.896L336 496.552v-13.793Z"/><path stroke="#000" stroke-width=".4799964" fill="none" d="m371.945 475.862 11.945 6.897v13.793l-11.945 6.896L360 496.552v-13.793ZM395.945 475.862l11.945 6.897v13.793l-11.945 6.896L384 496.552v-13.793Z"/><path stroke="#000" stroke-width=".4799964" fill="#00000002" d="m419.945 475.862 11.945 6.897v13.793l-11.945 6.896L408 496.552v-13.793Z"/><path stroke="#000" stroke-width=".4799964" fill="none" d="m443.945 475.862 11.945 6.897v13.793l-11.945 6.896L432 496.552v-13.793Z"/><path stroke="#000" stroke-width=".4799964" fill="#000000c1" d="m467.945 475.862 11.945 6.897v13.793l-11.945 6.896L456 496.552v-13.793Z"/><path stroke="#000" stroke-width=".4799964" fill="none" d="m23.945 496.552 11.945 6.896v13.793l-11.945 6.897L12 517.24v-13.793Z"/><path stroke="#000" stroke-width=".4799964" fill="#000000e6" d="m47.945 496.552 11.945 6.896v13.793l-11.945 6.897L36 517.24v-13.793Z"/><path stroke="#000" stroke-width=".4799964" fill="none" d="m71.945 496.552 11.945 6.896v13.793l-11.945 6.897L60 517.24v-13.793ZM95.945 496.552l11.945 6.896v13.793l-11.945 6.897L84 517.24v-13.793Z"/><path stroke="#000" stroke-width=".4799964" fill="#000000c5" d="m119.945 496.552 11.945 6.896v13.793l-11.945 6.897L108 517.24v-13.793Z"/><path stroke="#000" stroke-width=".4799964" fill="none" d="m143.945 496.552 11.945 6.896v13.793l-11.945 6.897L132 517.24v-13.793ZM167.945 496.552l11.945 6.896v13.793l-11.945 6.897L156 517.24v-13.793Z"/><path stroke="#000" stroke-width=".4799964" fill="#0000004b" d="m191.945 496.552 11.945 6.896v13.793l-11.945 6.897L180 517.24v-13.793Z"/><path stroke="#000" stroke-width=".4799964" fill="#0000008d" d="m215.945 496.552 11.945 6.896v13.793l-11.945 6.897L204 517.24v-13.793Z"/><path stroke="#000" stroke-width=".4799964" fill="none" d="m239.945 496.552 11.945 6.896v13.793l-11.945 6.897L228 517.24v-13.793ZM263.945 496.552l11.945 6.896v13.793l-11.945 6.897L252 517.24v-13.793ZM287.945 496.552l11.945 6.896v13.793l-11.945 6.897L276 517.24v-13.793ZM311.945 496.552l11.945 6.896v13.793l-11.945 6.897L300 517.24v-13.793ZM335.945 496.552l11.945 6.896v13.793l-11.945 6.897L324 517.24v-13.793ZM359.945 496.552l11.945 6.896v13.793l-11.945 6.897L348 517.24v-13.793ZM383.945 496.552l11.945 6.896v13.793l-11.945 6.897L372 517.24v-13.793ZM407.945 496.552l11.945 6.896v13.793l-11.945 6.897L396 517.24v-13.793ZM431.945 496.552l11.945 6.896v13.793l-11.945 6.897L420 517.24v-13.793Z"/><path stroke="#000" stroke-width=".4799964" fill="#000000d2" d="m455.945 496.552 11.945 6.896v13.793l-11.945 6.897L444 517.24v-13.793Z"/><path stroke="#000" stroke-width=".4799964" fill="none" d="m479.945 496.552 11.945 6.896v13.793l-11.945 6.897L468 517.24v-13.793Z"/><path stroke="#000" stroke-width=".4799964" fill="#0000009a" d="m11.945 517.241 11.945 6.897v13.793l-11.945 6.897L0 537.93v-13.793Z"/><path stroke="#000" stroke-width=".4799964" fill="#00000022" d="m35.945 517.241 11.945 6.897v13.793l-11.945 6.897L24 537.93v-13.793Z"/><path stroke="#000" stroke-width=".4799964" fill="none" d="m59.945 517.241 11.945 6.897v13.793l-11.945 6.897L48 537.93v-13.793ZM83.945 517.241l11.945 6.897v13.793l-11.945 6.897L72 537.93v-13.793ZM107.945 517.241l11.945 6.897v13.793l-11.945 6.897L96 537.93v-13.793ZM131.945 517.241l11.945 6.897v13.793l-11.945 6.897L120 537.93v-13.793ZM155.945 517.241l11.945 6.897v13.793l-11.945 6.897L144 537.93v-13.793ZM179.945 517.241l11.945 6.897v13.793l-11.945 6.897L168 537.93v-13.793ZM203.945 517.241l11.945 6.897v13.793l-11.945 6.897L192 537.93v-13.793Z"/><path stroke="#000" stroke-width=".4799964" fill="#00000002" d="m227.945 517.241 11.945 6.897v13.793l-11.945 6.897L216 537.93v-13.793Z"/><path stroke="#000" stroke-width=".4799964" fill="#00000028" d="m251.945 517.241 11.945 6.897v13.793l-11.945 6.897L240 537.93v-13.793Z"/><path stroke="#000" stroke-width=".4799964" fill="none" d="m275.945 517.241 11.945 6.897v13.793l-11.945 6.897L264 537.93v-13.793ZM299.945 517.241l11.945 6.897v13.793l-11.945 6.897L288 537.93v-13.793ZM323.945 517.241l11.945 6.897v13.793l-11.945 6.897L312 537.93v-13.793ZM347.945 517.241l11.945 6.897v13.793l-11.945 6.897L336 537.93v-13.793ZM371.945 517.241l11.945 6.897v13.793l-11.945 6.897L360 537.93v-13.793ZM395.945 517.241l11.945 6.897v13.793l-11.945 6.897L384 537.93v-13.793ZM419.945 517.241l11.945 6.897v13.793l-11.945 6.897L408 537.93v-13.793ZM443.945 517.241l11.945 6.897v13.793l-11.945 6.897L432 537.93v-13.793Z"/><path stroke="#000" stroke-width=".4799964" fill="#000000ad" d="m467.945 517.241 11.945 6.897v13.793l-11.945 6.897L456 537.93v-13.793Z"/><path stroke="#000" stroke-width=".4799964" fill="none" d="m23.945 537.931 11.945 6.897v13.793l-11.945 6.896L12 558.621v-13.793Z"/><path stroke="#000" stroke-width=".4799964" fill="#00000095" d="m47.945 537.931 11.945 6.897v13.793l-11.945 6.896L36 558.621v-13.793Z"/><path stroke="#000" stroke-width=".4799964" fill="#000000f8" d="m71.945 537.931 11.945 6.897v13.793l-11.945 6.896L60 558.621v-13.793Z"/><path stroke="#000" stroke-width=".4799964" fill="#000000c0" d="m95.945 537.931 11.945 6.897v13.793l-11.945 6.896L84 558.621v-13.793Z"/><path stroke="#000" stroke-width=".4799964" fill="none" d="m119.945 537.931 11.945 6.897v13.793l-11.945 6.896L108 558.621v-13.793ZM143.945 537.931l11.945 6.897v13.793l-11.945 6.896L132 558.621v-13.793ZM167.945 537.931l11.945 6.897v13.793l-11.945 6.896L156 558.621v-13.793ZM191.945 537.931l11.945 6.897v13.793l-11.945 6.896L180 558.621v-13.793ZM215.945 537.931l11.945 6.897v13.793l-11.945 6.896L204 558.621v-13.793ZM239.945 537.931l11.945 6.897v13.793l-11.945 6.896L228 558.621v-13.793ZM263.945 537.931l11.945 6.897v13.793l-11.945 6.896L252 558.621v-13.793ZM287.945 537.931l11.945 6.897v13.793l-11.945 6.896L276 558.621v-13.793ZM311.945 537.931l11.945 6.897v13.793l-11.945 6.896L300 558.621v-13.793ZM335.945 537.931l11.945 6.897v13.793l-11.945 6.896L324 558.621v-13.793ZM359.945 537.931l11.945 6.897v13.793l-11.945 6.896L348 558.621v-13.793ZM383.945 537.931l11.945 6.897v13.793l-11.945 6.896L372 558.621v-13.793ZM407.945 537.931l11.945 6.897v13.793l-11.945 6.896L396 558.621v-13.793Z"/><path stroke="#000" stroke-width=".4799964" fill="#000000e7" d="m431.945 537.931 11.945 6.897v13.793l-11.945 6.896L420 558.621v-13.793Z"/><path stroke="#000" stroke-width=".4799964" fill="#00000027" d="m455.945 537.931 11.945 6.897v13.793l-11.945 6.896L444 558.621v-13.793Z"/><path stroke="#000" stroke-width=".4799964" fill="#0000009d" d="m479.945 537.931 11.945 6.897v13.793l-11.945 6.896L468 558.621v-13.793Z"/><path stroke="#000" stroke-width=".4799964" fill="#00000077" d="m11.945 558.62 11.945 6.897v13.793l-11.945 6.897L0 579.31v-13.793Z"/><path stroke="#000" stroke-width=".4799964" fill="none" d="m35.945 558.62 11.945 6.897v13.793l-11.945 6.897L24 579.31v-13.793ZM59.945 558.62l11.945 6.897v13.793l-11.945 6.897L48 579.31v-13.793ZM83.945 558.62l11.945 6.897v13.793l-11.945 6.897L72 579.31v-13.793Z"/><path stroke="#000" stroke-width=".4799964" fill="#00000084" d="m107.945 558.62 11.945 6.897v13.793l-11.945 6.897L96 579.31v-13.793Z"/><path stroke="#000" stroke-width=".4799964" fill="#000000ba" d="m131.945 558.62 11.945 6.897v13.793l-11.945 6.897L120 579.31v-13.793Z"/><path stroke="#000" stroke-width=".4799964" fill="none" d="m155.945 558.62 11.945 6.897v13.793l-11.945 6.897L144 579.31v-13.793ZM179.945 558.62l11.945 6.897v13.793l-11.945 6.897L168 579.31v-13.793Z"/><path stroke="#000" stroke-width=".4799964" fill="#00000081" d="m203.945 558.62 11.945 6.897v13.793l-11.945 6.897L192 579.31v-13.793Z"/><path stroke="#000" stroke-width=".4799964" fill="none" d="m227.945 558.62 11.945 6.897v13.793l-11.945 6.897L216 579.31v-13.793Z"/><path stroke="#000" stroke-width=".4799964" fill="#000000c9" d="m251.945 558.62 11.945 6.897v13.793l-11.945 6.897L240 579.31v-13.793Z"/><path stroke="#000" stroke-width=".4799964" fill="none" d="m275.945 558.62 11.945 6.897v13.793l-11.945 6.897L264 579.31v-13.793ZM299.945 558.62l11.945 6.897v13.793l-11.945 6.897L288 579.31v-13.793ZM323.945 558.62l11.945 6.897v13.793l-11.945 6.897L312 579.31v-13.793ZM347.945 558.62l11.945 6.897v13.793l-11.945 6.897L336 579.31v-13.793Z"/><path stroke="#000" stroke-width=".4799964" fill="#000000d1" d="m371.945 558.62 11.945 6.897v13.793l-11.945 6.897L360 579.31v-13.793Z"/><path stroke="#000" stroke-width=".4799964" fill="#000000b0" d="m395.945 558.62 11.945 6.897v13.793l-11.945 6.897L384 579.31v-13.793Z"/><path stroke="#000" stroke-width=".4799964" fill="#0000000e" d="m419.945 558.62 11.945 6.897v13.793l-11.945 6.897L408 579.31v-13.793Z"/><path stroke="#000" stroke-width=".4799964" fill="none" d="m443.945 558.62 11.945 6.897v13.793l-11.945 6.897L432 579.31v-13.793ZM467.945 558.62l11.945 6.897v13.793l-11.945 6.897L456 579.31v-13.793ZM23.945 579.31l11.945 6.897V600l-11.945 6.897L12 600v-13.793ZM47.945 579.31l11.945 6.897V600l-11.945 6.897L36 600v-13.793Z"/><path stroke="#000" stroke-width=".4799964" fill="#0000005d" d="m71.945 579.31 11.945 6.897V600l-11.945 6.897L60 600v-13.793Z"/><path stroke="#000" stroke-width=".4799964" fill="#000000bb" d="m95.945 579.31 11.945 6.897V600l-11.945 6.897L84 600v-13.793Z"/><path stroke="#000" stroke-width=".4799964" fill="none" d="m119.945 579.31 11.945 6.897V600l-11.945 6.897L108 600v-13.793Z"/><path stroke="#000" stroke-width=".4799964" fill="#0000000c" d="m143.945 579.31 11.945 6.897V600l-11.945 6.897L132 600v-13.793Z"/><path stroke="#000" stroke-width=".4799964" fill="none" d="m167.945 579.31 11.945 6.897V600l-11.945 6.897L156 600v-13.793ZM191.945 579.31l11.945 6.897V600l-11.945 6.897L180 600v-13.793Z"/><path stroke="#000" stroke-width=".4799964" fill="#00000017" d="m215.945 579.31 11.945 6.897V600l-11.945 6.897L204 600v-13.793Z"/><path stroke="#000" stroke-width=".4799964" fill="#00000049" d="m239.945 579.31 11.945 6.897V600l-11.945 6.897L228 600v-13.793Z"/><path stroke="#000" stroke-width=".4799964" fill="none" d="m263.945 579.31 11.945 6.897V600l-11.945 6.897L252 600v-13.793ZM287.945 579.31l11.945 6.897V600l-11.945 6.897L276 600v-13.793Z"/><path stroke="#000" stroke-width=".4799964" fill="#00000056" d="m311.945 579.31 11.945 6.897V600l-11.945 6.897L300 600v-13.793Z"/><path stroke="#000" stroke-width=".4799964" fill="#00000021" d="m335.945 579.31 11.945 6.897V600l-11.945 6.897L324 600v-13.793Z"/><path stroke="#000" stroke-width=".4799964" fill="#0000001e" d="m359.945 579.31 11.945 6.897V600l-11.945 6.897L348 600v-13.793Z"/><path stroke="#000" stroke-width=".4799964" fill="#000000cb" d="m383.945 579.31 11.945 6.897V600l-11.945 6.897L372 600v-13.793Z"/><path stroke="#000" stroke-width=".4799964" fill="none" d="m407.945 579.31 11.945 6.897V600l-11.945 6.897L396 600v-13.793Z"/><path stroke="#000" stroke-width=".4799964" fill="#0000008b" d="m431.945 579.31 11.945 6.897V600l-11.945 6.897L420 600v-13.793Z"/><path stroke="#000" stroke-width=".4799964" fill="#00000096" d="m455.945 579.31 11.945 6.897V600l-11.945 6.897L444 600v-13.793Z"/><path stroke="#000" stroke-width=".4799964" fill="none" d="m479.945 579.31 11.945 6.897V600l-11.945 6.897L468 600v-13.793ZM11.945 600l11.945 6.897v13.793l-11.945 6.896L0 620.69v-13.793ZM35.945 600l11.945 6.897v13.793l-11.945 6.896L24 620.69v-13.793ZM59.945 600l11.945 6.897v13.793l-11.945 6.896L48 620.69v-13.793ZM83.945 600l11.945 6.897v13.793l-11.945 6.896L72 620.69v-13.793ZM107.945 600l11.945 6.897v13.793l-11.945 6.896L96 620.69v-13.793ZM131.945 600l11.945 6.897v13.793l-11.945 6.896L120 620.69v-13.793Z"/><path stroke="#000" stroke-width=".4799964" fill="#00000018" d="m155.945 600 11.945 6.897v13.793l-11.945 6.896L144 620.69v-13.793Z"/><path stroke="#000" stroke-width=".4799964" fill="none" d="m179.945 600 11.945 6.897v13.793l-11.945 6.896L168 620.69v-13.793ZM203.945 600l11.945 6.897v13.793l-11.945 6.896L192 620.69v-13.793Z"/><path stroke="#000" stroke-width=".4799964" fill="#000000e0" d="m227.945 600 11.945 6.897v13.793l-11.945 6.896L216 620.69v-13.793Z"/><path stroke="#000" stroke-width=".4799964" fill="none" d="m251.945 600 11.945 6.897v13.793l-11.945 6.896L240 620.69v-13.793ZM275.945 600l11.945 6.897v13.793l-11.945 6.896L264 620.69v-13.793ZM299.945 600l11.945 6.897v13.793l-11.945 6.896L288 620.69v-13.793Z"/><path stroke="#000" stroke-width=".4799964" fill="#000000c7" d="m323.945 600 11.945 6.897v13.793l-11.945 6.896L312 620.69v-13.793Z"/><path stroke="#000" stroke-width=".4799964" fill="#0000005a" d="m347.945 600 11.945 6.897v13.793l-11.945 6.896L336 620.69v-13.793Z"/><path stroke="#000" stroke-width=".4799964" fill="#000000a3" d="m371.945 600 11.945 6.897v13.793l-11.945 6.896L360 620.69v-13.793Z"/><path stroke="#000" stroke-width=".4799964" fill="none" d="m395.945 600 11.945 6.897v13.793l-11.945 6.896L384 620.69v-13.793ZM419.945 600l11.945 6.897v13.793l-11.945 6.896L408 620.69v-13.793ZM443.945 600l11.945 6.897v13.793l-11.945 6.896L432 620.69v-13.793ZM467.945 600l11.945 6.897v13.793l-11.945 6.896L456 620.69v-13.793ZM23.945 620.69l11.945 6.896v13.793l-11.945 6.897L12 641.379v-13.793ZM47.945 620.69l11.945 6.896v13.793l-11.945 6.897L36 641.379v-13.793Z"/><path stroke="#000" stroke-width=".4799964" fill="#000000a1" d="m71.945 620.69 11.945 6.896v13.793l-11.945 6.897L60 641.379v-13.793Z"/><path stroke="#000" stroke-width=".4799964" fill="none" d="m95.945 620.69 11.945 6.896v13.793l-11.945 6.897L84 641.379v-13.793ZM119.945 620.69l11.945 6.896v13.793l-11.945 6.897L108 641.379v-13.793ZM143.945 620.69l11.945 6.896v13.793l-11.945 6.897L132 641.379v-13.793ZM167.945 620.69l11.945 6.896v13.793l-11.945 6.897L156 641.379v-13.793ZM191.945 620.69l11.945 6.896v13.793l-11.945 6.897L180 641.379v-13.793ZM215.945 620.69l11.945 6.896v13.793l-11.945 6.897L204 641.379v-13.793ZM239.945 620.69l11.945 6.896v13.793l-11.945 6.897L228 641.379v-13.793ZM263.945 620.69l11.945 6.896v13.793l-11.945 6.897L252 641.379v-13.793Z"/><path stroke="#000" stroke-width=".4799964" fill="#00000057" d="m287.945 620.69 11.945 6.896v13.793l-11.945 6.897L276 641.379v-13.793Z"/><path stroke="#000" stroke-width=".4799964" fill="#0000008c" d="m311.945 620.69 11.945 6.896v13.793l-11.945 6.897L300 641.379v-13.793Z"/><path stroke="#000" stroke-width=".4799964" fill="#00000044" d="m335.945 620.69 11.945 6.896v13.793l-11.945 6.897L324 641.379v-13.793Z"/><path stroke="#000" stroke-width=".4799964" fill="none" d="m359.945 620.69 11.945 6.896v13.793l-11.945 6.897L348 641.379v-13.793ZM383.945 620.69l11.945 6.896v13.793l-11.945 6.897L372 641.379v-13.793ZM407.945 620.69l11.945 6.896v13.793l-11.945 6.897L396 641.379v-13.793Z"/><path stroke="#000" stroke-width=".4799964" fill="#000000bf" d="m431.945 620.69 11.945 6.896v13.793l-11.945 6.897L420 641.379v-13.793Z"/><path stroke="#000" stroke-width=".4799964" fill="none" d="m455.945 620.69 11.945 6.896v13.793l-11.945 6.897L444 641.379v-13.793ZM479.945 620.69l11.945 6.896v13.793l-11.945 6.897L468 641.379v-13.793Z"/><path stroke="#000" stroke-width=".4799964" fill="#000000c1" d="m11.945 641.38 11.945 6.896v13.793l-11.945 6.897L0 662.069v-13.793Z"/><path stroke="#000" stroke-width=".4799964" fill="none" d="m35.945 641.38 11.945 6.896v13.793l-11.945 6.897L24 662.069v-13.793ZM59.945 641.38l11.945 6.896v13.793l-11.945 6.897L48 662.069v-13.793Z"/><path stroke="#000" stroke-width=".4799964" fill="#000000be" d="m83.945 641.38 11.945 6.896v13.793l-11.945 6.897L72 662.069v-13.793Z"/><path stroke="#000" stroke-width=".4799964" fill="#000000f8" d="m107.945 641.38 11.945 6.896v13.793l-11.945 6.897L96 662.069v-13.793Z"/><path stroke="#000" stroke-width=".4799964" fill="none" d="m131.945 641.38 11.945 6.896v13.793l-11.945 6.897L120 662.069v-13.793ZM155.945 641.38l11.945 6.896v13.793l-11.945 6.897L144 662.069v-13.793ZM179.945 641.38l11.945 6.896v13.793l-11.945 6.897L168 662.069v-13.793Z"/><path stroke="#000" stroke-width=".4799964" fill="#00000034" d="m203.945 641.38 11.945 6.896v13.793l-11.945 6.897L192 662.069v-13.793Z"/><path stroke="#000" stroke-width=".4799964" fill="none" d="m227.945 641.38 11.945 6.896v13.793l-11.945 6.897L216 662.069v-13.793ZM251.945 641.38l11.945 6.896v13.793l-11.945 6.897L240 662.069v-13.793Z"/><path stroke="#000" stroke-width=".4799964" fill="#0000001f" d="m275.945 641.38 11.945 6.896v13.793l-11.945 6.897L264 662.069v-13.793Z"/><path stroke="#000" stroke-width=".4799964" fill="none" d="m299.945 641.38 11.945 6.896v13.793l-11.945 6.897L288 662.069v-13.793ZM323.945 641.38l11.945 6.896v13.793l-11.945 6.897L312 662.069v-13.793Z"/><path stroke="#000" stroke-width=".4799964" fill="#000000fe" d="m347.945 641.38 11.945 6.896v13.793l-11.945 6.897L336 662.069v-13.793Z"/><path stroke="#000" stroke-width=".4799964" fill="none" d="m371.945 641.38 11.945 6.896v13.793l-11.945 6.897L360 662.069v-13.793ZM395.945 641.38l11.945 6.896v13.793l-11.945 6.897L384 662.069v-13.793ZM419.945 641.38l11.945 6.896v13.793l-11.945 6.897L408 662.069v-13.793ZM443.945 641.38l11.945 6.896v13.793l-11.945 6.897L432 662.069v-13.793ZM467.945 641.38l11.945 6.896v13.793l-11.945 6.897L456 662.069v-13.793Z"/><path stroke="#000" stroke-width=".4799964" fill="#000000b8" d="m23.945 662.069 11.945 6.897v13.793l-11.945 6.896L12 682.76v-13.793Z"/><path stroke="#000" stroke-width=".4799964" fill="#00000019" d="m47.945 662.069 11.945 6.897v13.793l-11.945 6.896L36 682.76v-13.793Z"/><path stroke="#000" stroke-width=".4799964" fill="#00000066" d="m71.945 662.069 11.945 6.897v13.793l-11.945 6.896L60 682.76v-13.793Z"/><path stroke="#000" stroke-width=".4799964" fill="none" d="m95.945 662.069 11.945 6.897v13.793l-11.945 6.896L84 682.76v-13.793ZM119.945 662.069l11.945 6.897v13.793l-11.945 6.896L108 682.76v-13.793ZM143.945 662.069l11.945 6.897v13.793l-11.945 6.896L132 682.76v-13.793Z"/><path stroke="#000" stroke-width=".4799964" fill="#00000006" d="m167.945 662.069 11.945 6.897v13.793l-11.945 6.896L156 682.76v-13.793Z"/><path stroke="#000" stroke-width=".4799964" fill="#000000ae" d="m191.945 662.069 11.945 6.897v13.793l-11.945 6.896L180 682.76v-13.793Z"/><path stroke="#000" stroke-width=".4799964" fill="#00000054" d="m215.945 662.069 11.945 6.897v13.793l-11.945 6.896L204 682.76v-13.793Z"/><path stroke="#000" stroke-width=".4799964" fill="none" d="m239.945 662.069 11.945 6.897v13.793l-11.945 6.896L228 682.76v-13.793ZM263.945 662.069l11.945 6.897v13.793l-11.945 6.896L252 682.76v-13.793Z"/><path stroke="#000" stroke-width=".4799964" fill="#0000001e" d="m287.945 662.069 11.945 6.897v13.793l-11.945 6.896L276 682.76v-13.793Z"/><path stroke="#000" stroke-width=".4799964" fill="#00000042" d="m311.945 662.069 11.945 6.897v13.793l-11.945 6.896L300 682.76v-13.793Z"/><path stroke="#000" stroke-width=".4799964" fill="#00000074" d="m335.945 662.069 11.945 6.897v13.793l-11.945 6.896L324 682.76v-13.793Z"/><path stroke="#000" stroke-width=".4799964" fill="none" d="m359.945 662.069 11.945 6.897v13.793l-11.945 6.896L348 682.76v-13.793Z"/><path stroke="#000" stroke-width=".4799964" fill="#000000d5" d="m383.945 662.069 11.945 6.897v13.793l-11.945 6.896L372 682.76v-13.793Z"/><path stroke="#000" stroke-width=".4799964" fill="none" d="m407.945 662.069 11.945 6.897v13.793l-11.945 6.896L396 682.76v-13.793Z"/><path stroke="#000" stroke-width=".4799964" fill="#00000000" d="m431.945 662.069 11.945 6.897v13.793l-11.945 6.896L420 682.76v-13.793Z"/><path stroke="#000" stroke-width=".4799964" fill="none" d="m455.945 662.069 11.945 6.897v13.793l-11.945 6.896L444 682.76v-13.793ZM479.945 662.069l11.945 6.897v13.793l-11.945 6.896L468 682.76v-13.793ZM11.945 682.759l11.945 6.896v13.793l-11.945 6.897L0 703.448v-13.793ZM35.945 682.759l11.945 6.896v13.793l-11.945 6.897L24 703.448v-13.793ZM59.945 682.759l11.945 6.896v13.793l-11.945 6.897L48 703.448v-13.793ZM83.945 682.759l11.945 6.896v13.793l-11.945 6.897L72 703.448v-13.793Z"/><path stroke="#000" stroke-width=".4799964" fill="#0000006b" d="m107.945 682.759 11.945 6.896v13.793l-11.945 6.897L96 703.448v-13.793Z"/><path stroke="#000" stroke-width=".4799964" fill="#000000bd" d="m131.945 682.759 11.945 6.896v13.793l-11.945 6.897L120 703.448v-13.793Z"/><path stroke="#000" stroke-width=".4799964" fill="none" d="m155.945 682.759 11.945 6.896v13.793l-11.945 6.897L144 703.448v-13.793Z"/><path stroke="#000" stroke-width=".4799964" fill="#00000032" d="m179.945 682.759 11.945 6.896v13.793l-11.945 6.897L168 703.448v-13.793Z"/><path stroke="#000" stroke-width=".4799964" fill="#00000066" d="m203.945 682.759 11.945 6.896v13.793l-11.945 6.897L192 703.448v-13.793Z"/><path stroke="#000" stroke-width=".4799964" fill="#000000f2" d="m227.945 682.759 11.945 6.896v13.793l-11.945 6.897L216 703.448v-13.793Z"/><path stroke="#000" stroke-width=".4799964" fill="none" d="m251.945 682.759 11.945 6.896v13.793l-11.945 6.897L240 703.448v-13.793ZM275.945 682.759l11.945 6.896v13.793l-11.945 6.897L264 703.448v-13.793Z"/><path stroke="#000" stroke-width=".4799964" fill="#00000075" d="m299.945 682.759 11.945 6.896v13.793l-11.945 6.897L288 703.448v-13.793Z"/><path stroke="#000" stroke-width=".4799964" fill="none" d="m323.945 682.759 11.945 6.896v13.793l-11.945 6.897L312 703.448v-13.793Z"/><path stroke="#000" stroke-width=".4799964" fill="#0000009b" d="m347.945 682.759 11.945 6.896v13.793l-11.945 6.897L336 703.448v-13.793Z"/><path stroke="#000" stroke-width=".4799964" fill="#000000d4" d="m371.945 682.759 11.945 6.896v13.793l-11.945 6.897L360 703.448v-13.793Z"/><path stroke="#000" stroke-width=".4799964" fill="none" d="m395.945 682.759 11.945 6.896v13.793l-11.945 6.897L384 703.448v-13.793Z"/><path stroke="#000" stroke-width=".4799964" fill="#0000009d" d="m419.945 682.759 11.945 6.896v13.793l-11.945 6.897L408 703.448v-13.793Z"/><path stroke="#000" stroke-width=".4799964" fill="#000000bd" d="m443.945 682.759 11.945 6.896v13.793l-11.945 6.897L432 703.448v-13.793Z"/><path stroke="#000" stroke-width=".4799964" fill="#00000083" d="m467.945 682.759 11.945 6.896v13.793l-11.945 6.897L456 703.448v-13.793Z"/><path stroke="#000" stroke-width=".4799964" fill="none" d="m23.945 703.448 11.945 6.897v13.793l-11.945 6.896L12 724.138v-13.793Z"/><path stroke="#000" stroke-width=".4799964" fill="#000000b3" d="m47.945 703.448 11.945 6.897v13.793l-11.945 6.896L36 724.138v-13.793Z"/><path stroke="#000" stroke-width=".4799964" fill="none" d="m71.945 703.448 11.945 6.897v13.793l-11.945 6.896L60 724.138v-13.793ZM95.945 703.448l11.945 6.897v13.793l-11.945 6.896L84 724.138v-13.793Z"/><path stroke="#000" stroke-width=".4799964" fill="#000000c5" d="m119.945 703.448 11.945 6.897v13.793l-11.945 6.896L108 724.138v-13.793Z"/><path stroke="#000" stroke-width=".4799964" fill="none" d="m143.945 703.448 11.945 6.897v13.793l-11.945 6.896L132 724.138v-13.793ZM167.945 703.448l11.945 6.897v13.793l-11.945 6.896L156 724.138v-13.793ZM191.945 703.448l11.945 6.897v13.793l-11.945 6.896L180 724.138v-13.793ZM215.945 703.448l11.945 6.897v13.793l-11.945 6.896L204 724.138v-13.793ZM239.945 703.448l11.945 6.897v13.793l-11.945 6.896L228 724.138v-13.793ZM263.945 703.448l11.945 6.897v13.793l-11.945 6.896L252 724.138v-13.793ZM287.945 703.448l11.945 6.897v13.793l-11.945 6.896L276 724.138v-13.793ZM311.945 703.448l11.945 6.897v13.793l-11.945 6.896L300 724.138v-13.793ZM335.945 703.448l11.945 6.897v13.793l-11.945 6.896L324 724.138v-13.793Z"/><path stroke="#000" stroke-width=".4799964" fill="#0000002e" d="m359.945 703.448 11.945 6.897v13.793l-11.945 6.896L348 724.138v-13.793Z"/><path stroke="#000" stroke-width=".4799964" fill="#00000027" d="m383.945 703.448 11.945 6.897v13.793l-11.945 6.896L372 724.138v-13.793Z"/><path stroke="#000" stroke-width=".4799964" fill="none" d="m407.945 703.448 11.945 6.897v13.793l-11.945 6.896L396 724.138v-13.793ZM431.945 703.448l11.945 6.897v13.793l-11.945 6.896L420 724.138v-13.793Z"/><path stroke="#000" stroke-width=".4799964" fill="#000000e9" d="m455.945 703.448 11.945 6.897v13.793l-11.945 6.896L444 724.138v-13.793Z"/><path stroke="#000" stroke-width=".4799964" fill="none" d="m479.945 703.448 11.945 6.897v13.793l-11.945 6.896L468 724.138v-13.793ZM11.945 724.138l11.945 6.896v13.794l-11.945 6.896L0 744.828v-13.794ZM35.945 724.138l11.945 6.896v13.794l-11.945 6.896L24 744.828v-13.794ZM59.945 724.138l11.945 6.896v13.794l-11.945 6.896L48 744.828v-13.794ZM83.945 724.138l11.945 6.896v13.794l-11.945 6.896L72 744.828v-13.794Z"/><path stroke="#000" stroke-width=".4799964" fill="#000000ec" d="m107.945 724.138 11.945 6.896v13.794l-11.945 6.896L96 744.828v-13.794Z"/><path stroke="#000" stroke-width=".4799964" fill="none" d="m131.945 724.138 11.945 6.896v13.794l-11.945 6.896L120 744.828v-13.794ZM155.945 724.138l11.945 6.896v13.794l-11.945 6.896L144 744.828v-13.794ZM179.945 724.138l11.945 6.896v13.794l-11.945 6.896L168 744.828v-13.794ZM203.945 724.138l11.945 6.896v13.794l-11.945 6.896L192 744.828v-13.794ZM227.945 724.138l11.945 6.896v13.794l-11.945 6.896L216 744.828v-13.794Z"/><path stroke="#000" stroke-width=".4799964" fill="#00000052" d="m251.945 724.138 11.945 6.896v13.794l-11.945 6.896L240 744.828v-13.794Z"/><path stroke="#000" stroke-width=".4799964" fill="#0000007a" d="m275.945 724.138 11.945 6.896v13.794l-11.945 6.896L264 744.828v-13.794Z"/><path stroke="#000" stroke-width=".4799964" fill="#0000007e" d="m299.945 724.138 11.945 6.896v13.794l-11.945 6.896L288 744.828v-13.794Z"/><path stroke="#000" stroke-width=".4799964" fill="#0000005c" d="m323.945 724.138 11.945 6.896v13.794l-11.945 6.896L312 744.828v-13.794Z"/><path stroke="#000" stroke-width=".4799964" fill="none" d="m347.945 724.138 11.945 6.896v13.794l-11.945 6.896L336 744.828v-13.794Z"/><path stroke="#000" stroke-width=".4799964" fill="#00000072" d="m371.945 724.138 11.945 6.896v13.794l-11.945 6.896L360 744.828v-13.794Z"/><path stroke="#000" stroke-width=".4799964" fill="none" d="m395.945 724.138 11.945 6.896v13.794l-11.945 6.896L384 744.828v-13.794ZM419.945 724.138l11.945 6.896v13.794l-11.945 6.896L408 744.828v-13.794ZM443.945 724.138l11.945 6.896v13.794l-11.945 6.896L432 744.828v-13.794ZM467.945 724.138l11.945 6.896v13.794l-11.945 6.896L456 744.828v-13.794Z"/><path stroke="#000" stroke-width=".4799964" fill="#0000008b" d="m23.945 744.828 11.945 6.896v13.793l-11.945 6.897L12 765.517v-13.793Z"/><path stroke="#000" stroke-width=".4799964" fill="none" d="m47.945 744.828 11.945 6.896v13.793l-11.945 6.897L36 765.517v-13.793Z"/><path stroke="#000" stroke-width=".4799964" fill="#000000a5" d="m71.945 744.828 11.945 6.896v13.793l-11.945 6.897L60 765.517v-13.793Z"/><path stroke="#000" stroke-width=".4799964" fill="none" d="m95.945 744.828 11.945 6.896v13.793l-11.945 6.897L84 765.517v-13.793Z"/><path stroke="#000" stroke-width=".4799964" fill="#00000070" d="m119.945 744.828 11.945 6.896v13.793l-11.945 6.897L108 765.517v-13.793Z"/><path stroke="#000" stroke-width=".4799964" fill="#0000001a" d="m143.945 744.828 11.945 6.896v13.793l-11.945 6.897L132 765.517v-13.793Z"/><path stroke="#000" stroke-width=".4799964" fill="#000000b0" d="m167.945 744.828 11.945 6.896v13.793l-11.945 6.897L156 765.517v-13.793Z"/><path stroke="#000" stroke-width=".4799964" fill="none" d="m191.945 744.828 11.945 6.896v13.793l-11.945 6.897L180 765.517v-13.793ZM215.945 744.828l11.945 6.896v13.793l-11.945 6.897L204 765.517v-13.793ZM239.945 744.828l11.945 6.896v13.793l-11.945 6.897L228 765.517v-13.793Z"/><path stroke="#000" stroke-width=".4799964" fill="#0000002a" d="m263.945 744.828 11.945 6.896v13.793l-11.945 6.897L252 765.517v-13.793Z"/><path stroke="#000" stroke-width=".4799964" fill="none" d="m287.945 744.828 11.945 6.896v13.793l-11.945 6.897L276 765.517v-13.793ZM311.945 744.828l11.945 6.896v13.793l-11.945 6.897L300 765.517v-13.793Z"/><path stroke="#000" stroke-width=".4799964" fill="#000000ca" d="m335.945 744.828 11.945 6.896v13.793l-11.945 6.897L324 765.517v-13.793Z"/><path stroke="#000" stroke-width=".4799964" fill="none" d="m359.945 744.828 11.945 6.896v13.793l-11.945 6.897L348 765.517v-13.793Z"/><path stroke="#000" stroke-width=".4799964" fill="#00000026" d="m383.945 744.828 11.945 6.896v13.793l-11.945 6.897L372 765.517v-13.793Z"/><path stroke="#000" stroke-width=".4799964" fill="none" d="m407.945 744.828 11.945 6.896v13.793l-11.945 6.897L396 765.517v-13.793Z"/><path stroke="#000" stroke-width=".4799964" fill="#000000f3" d="m431.945 744.828 11.945 6.896v13.793l-11.945 6.897L420 765.517v-13.793Z"/><path stroke="#000" stroke-width=".4799964" fill="none" d="m455.945 744.828 11.945 6.896v13.793l-11.945 6.897L444 765.517v-13.793ZM479.945 744.828l11.945 6.896v13.793l-11.945 6.897L468 765.517v-13.793Z"/><path stroke="#000" stroke-width=".4799964" fill="#000000c5" d="m11.945 765.517 11.945 6.897v13.793l-11.945 6.896L0 786.207v-13.793Z"/><path stroke="#000" stroke-width=".4799964" fill="none" d="m35.945 765.517 11.945 6.897v13.793l-11.945 6.896L24 786.207v-13.793Z"/><path stroke="#000" stroke-width=".4799964" fill="#00000083" d="m59.945 765.517 11.945 6.897v13.793l-11.945 6.896L48 786.207v-13.793Z"/><path stroke="#000" stroke-width=".4799964" fill="#000000c2" d="m83.945 765.517 11.945 6.897v13.793l-11.945 6.896L72 786.207v-13.793Z"/><path stroke="#000" stroke-width=".4799964" fill="none" d="m107.945 765.517 11.945 6.897v13.793l-11.945 6.896L96 786.207v-13.793ZM131.945 765.517l11.945 6.897v13.793l-11.945 6.896L120 786.207v-13.793Z"/><path stroke="#000" stroke-width=".4799964" fill="#0000007b" d="m155.945 765.517 11.945 6.897v13.793l-11.945 6.896L144 786.207v-13.793Z"/><path stroke="#000" stroke-width=".4799964" fill="none" d="m179.945 765.517 11.945 6.897v13.793l-11.945 6.896L168 786.207v-13.793Z"/><path stroke="#000" stroke-width=".4799964" fill="#00000096" d="m203.945 765.517 11.945 6.897v13.793l-11.945 6.896L192 786.207v-13.793Z"/><path stroke="#000" stroke-width=".4799964" fill="#00000013" d="m227.945 765.517 11.945 6.897v13.793l-11.945 6.896L216 786.207v-13.793Z"/><path stroke="#000" stroke-width=".4799964" fill="none" d="m251.945 765.517 11.945 6.897v13.793l-11.945 6.896L240 786.207v-13.793ZM275.945 765.517l11.945 6.897v13.793l-11.945 6.896L264 786.207v-13.793Z"/><path stroke="#000" stroke-width=".4799964" fill="#0000008f" d="m299.945 765.517 11.945 6.897v13.793l-11.945 6.896L288 786.207v-13.793Z"/><path stroke="#000" stroke-width=".4799964" fill="#00000012" d="m323.945 765.517 11.945 6.897v13.793l-11.945 6.896L312 786.207v-13.793Z"/><path stroke="#000" stroke-width=".4799964" fill="#000000d6" d="m347.945 765.517 11.945 6.897v13.793l-11.945 6.896L336 786.207v-13.793Z"/><path stroke="#000" stroke-width=".4799964" fill="#000000f6" d="m371.945 765.517 11.945 6.897v13.793l-11.945 6.896L360 786.207v-13.793Z"/><path stroke="#000" stroke-width=".4799964" fill="none" d="m395.945 765.517 11.945 6.897v13.793l-11.945 6.896L384 786.207v-13.793Z"/><path stroke="#000" stroke-width=".4799964" fill="#00000045" d="m419.945 765.517 11.945 6.897v13.793l-11.945 6.896L408 786.207v-13.793Z"/><path stroke="#000" stroke-width=".4799964" fill="none" d="m443.945 765.517 11.945 6.897v13.793l-11.945 6.896L432 786.207v-13.793ZM467.945 765.517l11.945 6.897v13.793l-11.945 6.896L456 786.207v-13.793Z"/><path stroke="#000" stroke-width=".4799964" fill="#000000f2" d="m23.945 786.207 11.945 6.896v13.794l-11.945 6.896L12 806.897v-13.794Z"/><path stroke="#000" stroke-width=".4799964" fill="#00000086" d="m47.945 786.207 11.945 6.896v13.794l-11.945 6.896L36 806.897v-13.794Z"/><path stroke="#000" stroke-width=".4799964" fill="none" d="m71.945 786.207 11.945 6.896v13.794l-11.945 6.896L60 806.897v-13.794Z"/><path stroke="#000" stroke-width=".4799964" fill="#00000066" d="m95.945 786.207 11.945 6.896v13.794l-11.945 6.896L84 806.897v-13.794Z"/><path stroke="#000" stroke-width=".4799964" fill="#000000f7" d="m119.945 786.207 11.945 6.896v13.794l-11.945 6.896L108 806.897v-13.794Z"/><path stroke="#000" stroke-width=".4799964" fill="#00000016" d="m143.945 786.207 11.945 6.896v13.794l-11.945 6.896L132 806.897v-13.794Z"/><path stroke="#000" stroke-width=".4799964" fill="none" d="m167.945 786.207 11.945 6.896v13.794l-11.945 6.896L156 806.897v-13.794ZM191.945 786.207l11.945 6.896v13.794l-11.945 6.896L180 806.897v-13.794ZM215.945 786.207l11.945 6.896v13.794l-11.945 6.896L204 806.897v-13.794ZM239.945 786.207l11.945 6.896v13.794l-11.945 6.896L228 806.897v-13.794ZM263.945 786.207l11.945 6.896v13.794l-11.945 6.896L252 806.897v-13.794ZM287.945 786.207l11.945 6.896v13.794l-11.945 6.896L276 806.897v-13.794ZM311.945 786.207l11.945 6.896v13.794l-11.945 6.896L300 806.897v-13.794ZM335.945 786.207l11.945 6.896v13.794l-11.945 6.896L324 806.897v-13.794Z"/><path stroke="#000" stroke-width=".4799964" fill="#0000002a" d="m359.945 786.207 11.945 6.896v13.794l-11.945 6.896L348 806.897v-13.794Z"/><path stroke="#000" stroke-width=".4799964" fill="#000000cf" d="m383.945 786.207 11.945 6.896v13.794l-11.945 6.896L372 806.897v-13.794Z"/><path stroke="#000" stroke-width=".4799964" fill="#00000021" d="m407.945 786.207 11.945 6.896v13.794l-11.945 6.896L396 806.897v-13.794Z"/><path stroke="#000" stroke-width=".4799964" fill="none" d="m431.945 786.207 11.945 6.896v13.794l-11.945 6.896L420 806.897v-13.794ZM455.945 786.207l11.945 6.896v13.794l-11.945 6.896L444 806.897v-13.794ZM479.945 786.207l11.945 6.896v13.794l-11.945 6.896L468 806.897v-13.794ZM11.945 806.897l11.945 6.896v13.793l-11.945 6.897L0 827.586v-13.793ZM35.945 806.897l11.945 6.896v13.793l-11.945 6.897L24 827.586v-13.793Z"/><path stroke="#000" stroke-width=".4799964" fill="#0000006d" d="m59.945 806.897 11.945 6.896v13.793l-11.945 6.897L48 827.586v-13.793Z"/><path stroke="#000" stroke-width=".4799964" fill="none" d="m83.945 806.897 11.945 6.896v13.793l-11.945 6.897L72 827.586v-13.793ZM107.945 806.897l11.945 6.896v13.793l-11.945 6.897L96 827.586v-13.793ZM131.945 806.897l11.945 6.896v13.793l-11.945 6.897L120 827.586v-13.793Z"/><path stroke="#000" stroke-width=".4799964" fill="#000000d9" d="m155.945 806.897 11.945 6.896v13.793l-11.945 6.897L144 827.586v-13.793Z"/><path stroke="#000" stroke-width=".4799964" fill="none" d="m179.945 806.897 11.945 6.896v13.793l-11.945 6.897L168 827.586v-13.793Z"/><path stroke="#000" stroke-width=".4799964" fill="#00000057" d="m203.945 806.897 11.945 6.896v13.793l-11.945 6.897L192 827.586v-13.793Z"/><path stroke="#000" stroke-width=".4799964" fill="none" d="m227.945 806.897 11.945 6.896v13.793l-11.945 6.897L216 827.586v-13.793Z"/><path stroke="#000" stroke-width=".4799964" fill="#000000be" d="m251.945 806.897 11.945 6.896v13.793l-11.945 6.897L240 827.586v-13.793Z"/><path stroke="#000" stroke-width=".4799964" fill="#000000c1" d="m275.945 806.897 11.945 6.896v13.793l-11.945 6.897L264 827.586v-13.793Z"/><path stroke="#000" stroke-width=".4799964" fill="none" d="m299.945 806.897 11.945 6.896v13.793l-11.945 6.897L288 827.586v-13.793ZM323.945 806.897l11.945 6.896v13.793l-11.945 6.897L312 827.586v-13.793ZM347.945 806.897l11.945 6.896v13.793l-11.945 6.897L336 827.586v-13.793ZM371.945 806.897l11.945 6.896v13.793l-11.945 6.897L360 827.586v-13.793ZM395.945 806.897l11.945 6.896v13.793l-11.945 6.897L384 827.586v-13.793Z"/><path stroke="#000" stroke-width=".4799964" fill="#00000061" d="m419.945 806.897 11.945 6.896v13.793l-11.945 6.897L408 827.586v-13.793Z"/><path stroke="#000" stroke-width=".4799964" fill="none" d="m443.945 806.897 11.945 6.896v13.793l-11.945 6.897L432 827.586v-13.793ZM467.945 806.897l11.945 6.896v13.793l-11.945 6.897L456 827.586v-13.793Z"/></svg>